<?xml version="1.0" encoding="UTF-8"?>
<svg version="1.1" xmlns="http://www.w3.org/2000/svg" width="256" height="256">
<path d="M0 0 C17.49 0 34.98 0 53 0 C53 1.98 53 3.96 53 6 C57.95 6 62.9 6 68 6 C68 7.65 68 9.3 68 11 C72.29 11 76.58 11 81 11 C81 12.65 81 14.3 81 16 C83.31 16 85.62 16 88 16 C88 17.65 88 19.3 88 21 C92.62 21 97.24 21 102 21 C102 24.96 102 28.92 102 33 C106.95 33 111.9 33 117 33 C117 34.65 117 36.3 117 38 C114.36 38 111.72 38 109 38 C109 39.65 109 41.3 109 43 C114.28 43 119.56 43 125 43 C125 48.61 125 54.22 125 60 C127.31 60 129.62 60 132 60 C132 61.65 132 63.3 132 65 C133.32 65 134.64 65 136 65 C136 72.26 136 79.52 136 87 C137.65 87 139.3 87 141 87 C141 90.96 141 94.92 141 99 C138.36 99 135.72 99 133 99 C133 101.31 133 103.62 133 106 C135.64 106 138.28 106 141 106 C141 112.6 141 119.2 141 126 C138.36 126 135.72 126 133 126 C133 137.55 133 149.1 133 161 C130.36 161 127.72 161 125 161 C125 161.66 125 162.32 125 163 C123.68 163 122.36 163 121 163 C121 164.65 121 166.3 121 168 C119.68 168 118.36 168 117 168 C117 170.97 117 173.94 117 177 C114.36 177 111.72 177 109 177 C109 178.65 109 180.3 109 182 C107.02 182 105.04 182 103 182 C103 184.31 103 186.62 103 189 C101.35 189 99.7 189 98 189 C98 192.63 98 196.26 98 200 C96.68 200 95.36 200 94 200 C94 201.65 94 203.3 94 205 C89.71 205 85.42 205 81 205 C81 206.65 81 208.3 81 210 C76.59085217 211.10228696 72.51617599 211.07654536 68 211 C68 212.65 68 214.3 68 216 C58.08897678 217.72236841 48.6864434 218.22217578 38.6328125 217.9765625 C37.2179439 217.95030238 35.80305641 217.92504338 34.38815308 217.90072632 C30.71542891 217.83498362 27.0431166 217.75590972 23.37072754 217.67376709 C19.60277773 217.59194419 15.83459084 217.52313114 12.06640625 217.453125 C4.71065047 217.31459943 -2.64471856 217.16194709 -10 217 C-10 215.02 -10 213.04 -10 211 C-12.97 211 -15.94 211 -19 211 C-19 207.37 -19 203.74 -19 200 C-21.31 200 -23.62 200 -26 200 C-26 198.35 -26 196.7 -26 195 C-28.64 195 -31.28 195 -34 195 C-34 196.65 -34 198.3 -34 200 C-36.64 200 -39.28 200 -42 200 C-42 198.35 -42 196.7 -42 195 C-44.31 195 -46.62 195 -49 195 C-49 189.06 -49 183.12 -49 177 C-53.29 177 -57.58 177 -62 177 C-62 172.05 -62 167.1 -62 162 C-62.99 162 -63.98 162 -65 162 C-65 159.69 -65 157.38 -65 155 C-66.98 155 -68.96 155 -71 155 C-71 152.69 -71 150.38 -71 148 C-72.98 148 -74.96 148 -77 148 C-77 145.03 -77 142.06 -77 139 C-79.31 139 -81.62 139 -84 139 C-84.20272358 128.97644511 -83.58039956 119.00152811 -83 109 C-81.68 109 -80.36 109 -79 109 C-79 109.99 -79 110.98 -79 112 C-78.34 112 -77.68 112 -77 112 C-77 110.35 -77 108.7 -77 107 C-78.98 107 -80.96 107 -83 107 C-83 100.4 -83 93.8 -83 87 C-81.35 87 -79.7 87 -78 87 C-78 83.37 -78 79.74 -78 76 C-75.69 76 -73.38 76 -71 76 C-71 74.35 -71 72.7 -71 71 C-72.98 71 -74.96 71 -77 71 C-77 69.02 -77 67.04 -77 65 C-75.35 65 -73.7 65 -72 65 C-72 61.37 -72 57.74 -72 54 C-68.7 54 -65.4 54 -62 54 C-62 50.04 -62 46.08 -62 42 C-57.71 42 -53.42 42 -49 42 C-49 40.68 -49 39.36 -49 38 C-51.31 38 -53.62 38 -56 38 C-56 36.35 -56 34.7 -56 33 C-54.02 33 -52.04 33 -50 33 C-50 31.02 -50 29.04 -50 27 C-45.05 27 -40.1 27 -35 27 C-35 25.02 -35 23.04 -35 21 C-36.98 21 -38.96 21 -41 21 C-41 19.02 -41 17.04 -41 15 C-39.02 15 -37.04 15 -35 15 C-35 13.68 -35 12.36 -35 11 C-32.03 11 -29.06 11 -26 11 C-26 12.65 -26 14.3 -26 16 C-23.69 16 -21.38 16 -19 16 C-19 14.35 -19 12.7 -19 11 C-18.34 11 -17.68 11 -17 11 C-17 9.02 -17 7.04 -17 5 C-11.39 5 -5.78 5 0 5 C0 3.35 0 1.7 0 0 Z M-33 16 C-33 17.65 -33 19.3 -33 21 C-31.02 21 -29.04 21 -27 21 C-27 19.35 -27 17.7 -27 16 C-28.98 16 -30.96 16 -33 16 Z M5 24 C5 25.32 5 26.64 5 28 C-1.6 28 -8.2 28 -15 28 C-15 29.65 -15 31.3 -15 33 C-18.63 33 -22.26 33 -26 33 C-26 36.3 -26 39.6 -26 43 C-28.64 43 -31.28 43 -34 43 C-34 46.96 -34 50.92 -34 55 C-36.31 55 -38.62 55 -41 55 C-41 56.65 -41 58.3 -41 60 C-41.66 60 -42.32 60 -43 60 C-43 61.65 -43 63.3 -43 65 C-44.65 65 -46.3 65 -48 65 C-48 70.61 -48 76.22 -48 82 C-50.64 82 -53.28 82 -56 82 C-56 87.61 -56 93.22 -56 99 C-57.98 99 -59.96 99 -62 99 C-62 101.31 -62 103.62 -62 106 C-60.02 106 -58.04 106 -56 106 C-56 116.56 -56 127.12 -56 138 C-53.03 138 -50.06 138 -47 138 C-47 141.3 -47 144.6 -47 148 C-45.35 148 -43.7 148 -42 148 C-42 153.94 -42 159.88 -42 166 C-39.36 166 -36.72 166 -34 166 C-34 169.3 -34 172.6 -34 176 C-31.36 176 -28.72 176 -26 176 C-26 179.3 -26 182.6 -26 186 C-20.72 186 -15.44 186 -10 186 C-10 187.65 -10 189.3 -10 191 C-5.38 191.33 -0.76 191.66 4 192 C4 193.98 4 195.96 4 198 C9.94 198 15.88 198 22 198 C22 199.98 22 201.96 22 204 C23.98 204 25.96 204 28 204 C28 202.35 28 200.7 28 199 C35.92 199 43.84 199 52 199 C52 196.36 52 193.72 52 191 C57.28 191 62.56 191 68 191 C68 189.35 68 187.7 68 186 C72.62 186 77.24 186 82 186 C82 182.7 82 179.4 82 176 C83.98 176 85.96 176 88 176 C88 172.7 88 169.4 88 166 C91.96 166 95.92 166 100 166 C100 164.02 100 162.04 100 160 C101.32 160 102.64 160 104 160 C104 158.02 104 156.04 104 154 C103.01 154 102.02 154 101 154 C101 152.35 101 150.7 101 149 C102.65 149 104.3 149 106 149 C106 145.37 106 141.74 106 138 C109.63 138 113.26 138 117 138 C117 127.44 117 116.88 117 106 C118.65 106 120.3 106 122 106 C122 103.69 122 101.38 122 99 C120.68 99 119.36 99 118 99 C118 93.39 118 87.78 118 82 C114.04 82 110.08 82 106 82 C106 76.39 106 70.78 106 65 C104.02 65 102.04 65 100 65 C100 61.7 100 58.4 100 55 C96.04 55 92.08 55 88 55 C88 51.04 88 47.08 88 43 C83.71 43 79.42 43 75 43 C75 39.7 75 36.4 75 33 C72.69 33 70.38 33 68 33 C68 31.35 68 29.7 68 28 C62.72 28 57.44 28 52 28 C52 26.68 52 25.36 52 24 C36.49 24 20.98 24 5 24 Z " fill="#90E0EF" transform="translate(100,20)"/>
<path d="M0 0 C16.5 0 33 0 50 0 C50 1.98 50 3.96 50 6 C52.97 6 55.94 6 59 6 C59 7.65 59 9.3 59 11 C63.95 11 68.9 11 74 11 C74 20.24 74 29.48 74 39 C75.65 39 77.3 39 79 39 C79 42.3 79 45.6 79 49 C81.31 49 83.62 49 86 49 C86 52.3 86 55.6 86 59 C83.69 59 81.38 59 79 59 C79 64.28 79 69.56 79 75 C78.01 75 77.02 75 76 75 C76 77.31 76 79.62 76 82 C76.99 82 77.98 82 79 82 C79 84.97 79 87.94 79 91 C77.02 91 75.04 91 73 91 C73 94.3 73 97.6 73 101 C70.69 101 68.38 101 66 101 C66 102.65 66 104.3 66 106 C63.36 106 60.72 106 58 106 C58 107.65 58 109.3 58 111 C55.69 111 53.38 111 51 111 C51 114.3 51 117.6 51 121 C35.16 121 19.32 121 3 121 C3 117.7 3 114.4 3 111 C-1.62 111 -6.24 111 -11 111 C-11 105.39 -11 99.78 -11 94 C-13.31 94 -15.62 94 -18 94 C-18 90.7 -18 87.4 -18 84 C-18.99 84 -19.98 84 -21 84 C-21 75.75 -21 67.5 -21 59 C-22.98 59 -24.96 59 -27 59 C-27 57.02 -27 55.04 -27 53 C-25.02 53 -23.04 53 -21 53 C-21 50.03 -21 47.06 -21 44 C-23.31 44 -25.62 44 -28 44 C-28 42.35 -28 40.7 -28 39 C-26.02 39 -24.04 39 -22 39 C-22 33.39 -22 27.78 -22 22 C-18.7 22 -15.4 22 -12 22 C-12 18.37 -12 14.74 -12 11 C-10.02 11 -8.04 11 -6 11 C-6 9.35 -6 7.7 -6 6 C-4.02 6 -2.04 6 0 6 C0 4.02 0 2.04 0 0 Z M15 22 C15 25.63 15 29.26 15 33 C12.69 33 10.38 33 8 33 C8 46.86 8 60.72 8 75 C10.31 75.33 12.62 75.66 15 76 C15 82.6 15 89.2 15 96 C22.92 96 30.84 96 39 96 C39 93.03 39 90.06 39 87 C40.65 87 42.3 87 44 87 C44 83.04 44 79.08 44 75 C45.98 75 47.96 75 50 75 C50 67.08 50 59.16 50 51 C48.35 51 46.7 51 45 51 C45 45.06 45 39.12 45 33 C43.35 33 41.7 33 40 33 C40 29.37 40 25.74 40 22 C31.75 22 23.5 22 15 22 Z " fill="#90E0EF" transform="translate(102,68)"/>
<path d="M0 0 C17.49 0 34.98 0 53 0 C53 1.98 53 3.96 53 6 C57.95 6 62.9 6 68 6 C68 7.65 68 9.3 68 11 C72.29 11 76.58 11 81 11 C81 12.65 81 14.3 81 16 C83.31 16 85.62 16 88 16 C88 17.65 88 19.3 88 21 C92.62 21 97.24 21 102 21 C102 24.96 102 28.92 102 33 C106.95 33 111.9 33 117 33 C117 34.65 117 36.3 117 38 C114.36 38 111.72 38 109 38 C109 39.65 109 41.3 109 43 C114.28 43 119.56 43 125 43 C125 48.61 125 54.22 125 60 C127.31 60 129.62 60 132 60 C132 61.65 132 63.3 132 65 C133.32 65 134.64 65 136 65 C136 72.26 136 79.52 136 87 C137.65 87 139.3 87 141 87 C141 90.96 141 94.92 141 99 C138.36 99 135.72 99 133 99 C133 101.31 133 103.62 133 106 C135.64 106 138.28 106 141 106 C141 112.6 141 119.2 141 126 C138.36 126 135.72 126 133 126 C133 133.59 133 141.18 133 149 C126.4 149 119.8 149 113 149 C113 145.37 113 141.74 113 138 C114.32 138 115.64 138 117 138 C117 127.44 117 116.88 117 106 C118.65 106 120.3 106 122 106 C122 103.69 122 101.38 122 99 C120.68 99 119.36 99 118 99 C118 93.39 118 87.78 118 82 C114.04 82 110.08 82 106 82 C106 76.39 106 70.78 106 65 C104.02 65 102.04 65 100 65 C100 61.7 100 58.4 100 55 C96.04 55 92.08 55 88 55 C88 51.04 88 47.08 88 43 C83.71 43 79.42 43 75 43 C75 39.7 75 36.4 75 33 C72.69 33 70.38 33 68 33 C68 31.35 68 29.7 68 28 C62.72 28 57.44 28 52 28 C52 26.68 52 25.36 52 24 C36.49 24 20.98 24 5 24 C5 25.32 5 26.64 5 28 C-5.23 28 -15.46 28 -26 28 C-26.33 24.04 -26.66 20.08 -27 16 C-28.98 16 -30.96 16 -33 16 C-33 17.65 -33 19.3 -33 21 C-35.64 21 -38.28 21 -41 21 C-41 19.02 -41 17.04 -41 15 C-39.02 15 -37.04 15 -35 15 C-35 13.68 -35 12.36 -35 11 C-32.03 11 -29.06 11 -26 11 C-26 12.65 -26 14.3 -26 16 C-23.69 16 -21.38 16 -19 16 C-19 14.35 -19 12.7 -19 11 C-18.34 11 -17.68 11 -17 11 C-17 9.02 -17 7.04 -17 5 C-11.39 5 -5.78 5 0 5 C0 3.35 0 1.7 0 0 Z " fill="#90E0EF" transform="translate(100,20)"/>
<path d="M0 0 C1.65 0 3.3 0 5 0 C5 1.98 5 3.96 5 6 C7.97 6 10.94 6 14 6 C14 7.65 14 9.3 14 11 C18.95 11 23.9 11 29 11 C29 20.24 29 29.48 29 39 C30.65 39 32.3 39 34 39 C34 42.3 34 45.6 34 49 C36.31 49 38.62 49 41 49 C41 52.3 41 55.6 41 59 C38.69 59 36.38 59 34 59 C34 64.28 34 69.56 34 75 C33.01 75 32.02 75 31 75 C31 77.31 31 79.62 31 82 C31.99 82 32.98 82 34 82 C34 84.97 34 87.94 34 91 C32.02 91 30.04 91 28 91 C28 94.3 28 97.6 28 101 C25.69 101 23.38 101 21 101 C21 102.65 21 104.3 21 106 C18.36 106 15.72 106 13 106 C13 107.65 13 109.3 13 111 C10.69 111 8.38 111 6 111 C6 111.99 6 112.98 6 114 C4.02 114 2.04 114 0 114 C0 113.01 0 112.02 0 111 C-3.63 111 -7.26 111 -11 111 C-11 107.7 -11 104.4 -11 101 C-9.02 101 -7.04 101 -5 101 C-5 99.68 -5 98.36 -5 97 C-3.35 97 -1.7 97 0 97 C-0.06582275 96.44014404 -0.13164551 95.88028809 -0.19946289 95.3034668 C-0.49396974 92.76554945 -0.77834125 90.2265959 -1.0625 87.6875 C-1.16626953 86.80642578 -1.27003906 85.92535156 -1.37695312 85.01757812 C-1.47041016 84.17001953 -1.56386719 83.32246094 -1.66015625 82.44921875 C-1.79369507 81.27879028 -1.79369507 81.27879028 -1.92993164 80.0847168 C-2 78 -2 78 -1 75 C0.98 75 2.96 75 5 75 C5 67.08 5 59.16 5 51 C3.35 51 1.7 51 0 51 C0 47.04 0 43.08 0 39 C4.62 39 9.24 39 14 39 C14 35.37 14 31.74 14 28 C11.36 28 8.72 28 6 28 C6 24.37 6 20.74 6 17 C3.69 17 1.38 17 -1 17 C-1 15.35 -1 13.7 -1 12 C-2.98 12 -4.96 12 -7 12 C-7 13.65 -7 15.3 -7 17 C-13.27 17 -19.54 17 -26 17 C-26 15.35 -26 13.7 -26 12 C-29.3 12 -32.6 12 -36 12 C-36 13.65 -36 15.3 -36 17 C-37.98 17 -39.96 17 -42 17 C-42 13.04 -42 9.08 -42 5 C-28.14 5 -14.28 5 0 5 C0 3.35 0 1.7 0 0 Z " fill="#90E0EE" transform="translate(147,68)"/>
<path d="M0 0 C2.97 0 5.94 0 9 0 C9 2.31 9 4.62 9 7 C12.63 7 16.26 7 20 7 C20 8.65 20 10.3 20 12 C16.37 12 12.74 12 9 12 C9 15.3 9 18.6 9 22 C6.36 22 3.72 22 1 22 C1 25.96 1 29.92 1 34 C-1.31 34 -3.62 34 -6 34 C-6 35.65 -6 37.3 -6 39 C-6.66 39 -7.32 39 -8 39 C-8 40.65 -8 42.3 -8 44 C-9.65 44 -11.3 44 -13 44 C-13 49.61 -13 55.22 -13 61 C-15.64 61 -18.28 61 -21 61 C-21 62.65 -21 64.3 -21 66 C-27.93 66 -34.86 66 -42 66 C-42 68.97 -42 71.94 -42 75 C-40.02 75 -38.04 75 -36 75 C-36 80.28 -36 85.56 -36 91 C-37.98 91 -39.96 91 -42 91 C-42 89.35 -42 87.7 -42 86 C-43.98 86 -45.96 86 -48 86 C-48 79.4 -48 72.8 -48 66 C-46.35 66 -44.7 66 -43 66 C-43 62.37 -43 58.74 -43 55 C-40.69 55 -38.38 55 -36 55 C-36 53.35 -36 51.7 -36 50 C-37.98 50 -39.96 50 -42 50 C-42 48.02 -42 46.04 -42 44 C-40.35 44 -38.7 44 -37 44 C-37 40.37 -37 36.74 -37 33 C-33.7 33 -30.4 33 -27 33 C-27 29.04 -27 25.08 -27 21 C-22.71 21 -18.42 21 -14 21 C-14 19.68 -14 18.36 -14 17 C-16.31 17 -18.62 17 -21 17 C-21 15.35 -21 13.7 -21 12 C-19.02 12 -17.04 12 -15 12 C-15 10.02 -15 8.04 -15 6 C-10.05 6 -5.1 6 0 6 C0 4.02 0 2.04 0 0 Z " fill="#90E0EF" transform="translate(65,41)"/>
<path d="M0 0 C6.27 0 12.54 0 19 0 C19.495 15.345 19.495 15.345 20 31 C22.64 31 25.28 31 28 31 C28 37.6 28 44.2 28 51 C25.36 51 22.72 51 20 51 C20 58.59 20 66.18 20 74 C13.4 74 6.8 74 0 74 C0 70.37 0 66.74 0 63 C1.32 63 2.64 63 4 63 C4 52.44 4 41.88 4 31 C5.65 31 7.3 31 9 31 C9 28.69 9 26.38 9 24 C7.68 24 6.36 24 5 24 C5 18.39 5 12.78 5 7 C3.35 7 1.7 7 0 7 C0 4.69 0 2.38 0 0 Z " fill="#90E0EF" transform="translate(213,95)"/>
<path d="M0 0 C4.95 0 9.9 0 15 0 C15 15.51 15 31.02 15 47 C17.97 47 20.94 47 24 47 C24 45.35 24 43.7 24 42 C25.98 42 27.96 42 30 42 C30 45.3 30 48.6 30 52 C41.88 52 53.76 52 66 52 C66 52.99 66 53.98 66 55 C67.98 55 69.96 55 72 55 C72 57.31 72 59.62 72 62 C56.16 62 40.32 62 24 62 C24 58.7 24 55.4 24 52 C19.38 52 14.76 52 10 52 C10 46.39 10 40.78 10 35 C7.69 35 5.38 35 3 35 C3 31.7 3 28.4 3 25 C2.01 25 1.02 25 0 25 C0 16.75 0 8.5 0 0 Z " fill="#0077B6" transform="translate(81,127)"/>
<path d="M0 0 C1.65 0 3.3 0 5 0 C5 1.65 5 3.3 5 5 C18.53 5 32.06 5 46 5 C46 7.64 46 10.28 46 13 C32.47 13 18.94 13 5 13 C5 17.95 5 22.9 5 28 C-5.23 28 -15.46 28 -26 28 C-26.33 24.04 -26.66 20.08 -27 16 C-28.98 16 -30.96 16 -33 16 C-33 17.65 -33 19.3 -33 21 C-35.64 21 -38.28 21 -41 21 C-41 19.02 -41 17.04 -41 15 C-39.02 15 -37.04 15 -35 15 C-35 13.68 -35 12.36 -35 11 C-32.03 11 -29.06 11 -26 11 C-26 12.65 -26 14.3 -26 16 C-23.69 16 -21.38 16 -19 16 C-19 14.35 -19 12.7 -19 11 C-18.34 11 -17.68 11 -17 11 C-17 9.02 -17 7.04 -17 5 C-11.39 5 -5.78 5 0 5 C0 3.35 0 1.7 0 0 Z " fill="#90E0EF" transform="translate(100,20)"/>
<path d="M0 0 C5.61 0 11.22 0 17 0 C17 1.98 17 3.96 17 6 C18.98 6 20.96 6 23 6 C23 4.35 23 2.7 23 1 C29.27 1 35.54 1 42 1 C41.67 3.31 41.34 5.62 41 8 C43.31 8 45.62 8 48 8 C48 9.65 48 11.3 48 13 C49.65 13 51.3 13 53 13 C53 14.98 53 16.96 53 19 C49.49998239 20.08777224 46.32255362 20.08642319 42.67089844 20.02172852 C41.38987244 20.00163223 40.10884644 19.98153595 38.78900146 19.96083069 C37.39579042 19.93363637 36.00258164 19.90632549 34.609375 19.87890625 C33.18020394 19.85459291 31.75102481 19.83074996 30.32183838 19.80735779 C26.56692279 19.74463756 22.8121508 19.67553705 19.05737305 19.60510254 C15.22321084 19.53430989 11.38894713 19.46955842 7.5546875 19.40429688 C0.03634603 19.27544009 -7.48185398 19.13984206 -15 19 C-15 17.02 -15 15.04 -15 13 C-17.97 13 -20.94 13 -24 13 C-24 11.02 -24 9.04 -24 7 C-16.08 7 -8.16 7 0 7 C0 4.69 0 2.38 0 0 Z " fill="#90E0EF" transform="translate(105,218)"/>
<path d="M0 0 C2.97 0 5.94 0 9 0 C9 1.65 9 3.3 9 5 C13.95 5 18.9 5 24 5 C24 14.24 24 23.48 24 33 C25.65 33 27.3 33 29 33 C29 36.3 29 39.6 29 43 C31.31 43 33.62 43 36 43 C36 46.3 36 49.6 36 53 C33.69 53 31.38 53 29 53 C29 58.28 29 63.56 29 69 C28.01 69 27.02 69 26 69 C26 71.31 26 73.62 26 76 C26.99 76 27.98 76 29 76 C29 78.97 29 81.94 29 85 C27.02 85 25.04 85 23 85 C23 88.3 23 91.6 23 95 C20.69 95 18.38 95 16 95 C16 96.65 16 98.3 16 100 C13.36 100 10.72 100 8 100 C8 101.65 8 103.3 8 105 C5.69 105 3.38 105 1 105 C1 101.7 1 98.4 1 95 C3.31 95 5.62 95 8 95 C8 92.69 8 90.38 8 88 C10.64 88 13.28 88 16 88 C16 84.37 16 80.74 16 77 C18.31 77 20.62 77 23 77 C23 62.48 23 47.96 23 33 C20.69 33 18.38 33 16 33 C16 27.72 16 22.44 16 17 C13.03 17 10.06 17 7 17 C7 13.7 7 10.4 7 7 C4.69 7 2.38 7 0 7 C0 4.69 0 2.38 0 0 Z " fill="#00B4D8" transform="translate(152,74)"/>
<path d="M0 0 C2.31 0 4.62 0 7 0 C7 3.63 7 7.26 7 11 C13.6 11 20.2 11 27 11 C27 14.96 27 18.92 27 23 C24.36 23 21.72 23 19 23 C19 23.66 19 24.32 19 25 C17.68 25 16.36 25 15 25 C15 26.65 15 28.3 15 30 C13.68 30 12.36 30 11 30 C11 32.97 11 35.94 11 39 C8.36 39 5.72 39 3 39 C3 40.65 3 42.3 3 44 C-1.76307437 44.95261487 -6.1666528 45.08333357 -11 45 C-11 42.69 -11 40.38 -11 38 C-13.31 38 -15.62 38 -18 38 C-18 34.7 -18 31.4 -18 28 C-14.04 28 -10.08 28 -6 28 C-6 26.02 -6 24.04 -6 22 C-4.68 22 -3.36 22 -2 22 C-2 20.02 -2 18.04 -2 16 C-2.99 16 -3.98 16 -5 16 C-5 14.35 -5 12.7 -5 11 C-3.35 11 -1.7 11 0 11 C0 7.37 0 3.74 0 0 Z " fill="#90E0EF" transform="translate(206,158)"/>
<path d="M0 0 C1.65 0 3.3 0 5 0 C5 4.29 5 8.58 5 13 C7.31 13 9.62 13 12 13 C12 16.3 12 19.6 12 23 C14.97 23 17.94 23 21 23 C21 28.28 21 33.56 21 39 C23.31 39 25.62 39 28 39 C28 43.62 28 48.24 28 53 C23.38 53 18.76 53 14 53 C14 44.75 14 36.5 14 28 C11.36 28 8.72 28 6 28 C6 24.37 6 20.74 6 17 C3.69 17 1.38 17 -1 17 C-1 15.35 -1 13.7 -1 12 C-2.98 12 -4.96 12 -7 12 C-7 13.65 -7 15.3 -7 17 C-13.27 17 -19.54 17 -26 17 C-26 15.35 -26 13.7 -26 12 C-29.3 12 -32.6 12 -36 12 C-36 13.65 -36 15.3 -36 17 C-37.98 17 -39.96 17 -42 17 C-42 13.04 -42 9.08 -42 5 C-28.14 5 -14.28 5 0 5 C0 3.35 0 1.7 0 0 Z " fill="#CAF0F8" transform="translate(147,68)"/>
<path d="M0 0 C4.95 0 9.9 0 15 0 C15 5.61 15 11.22 15 17 C12.36 17 9.72 17 7 17 C7 18.65 7 20.3 7 22 C0.07 22 -6.86 22 -14 22 C-14 24.97 -14 27.94 -14 31 C-12.02 31 -10.04 31 -8 31 C-8 36.28 -8 41.56 -8 47 C-9.98 47 -11.96 47 -14 47 C-14 45.35 -14 43.7 -14 42 C-15.98 42 -17.96 42 -20 42 C-20 35.4 -20 28.8 -20 22 C-18.35 22 -16.7 22 -15 22 C-15 18.37 -15 14.74 -15 11 C-10.05 11 -5.1 11 0 11 C0 7.37 0 3.74 0 0 Z " fill="#0077B6" transform="translate(37,85)"/>
<path d="M0 0 C2.64 0 5.28 0 8 0 C8 3.3 8 6.6 8 10 C13.28 10 18.56 10 24 10 C24 11.65 24 13.3 24 15 C28.95 15 33.9 15 39 15 C39 19.62 39 24.24 39 29 C31.08 29 23.16 29 15 29 C15 27.35 15 25.7 15 24 C12.69 24 10.38 24 8 24 C8 22.35 8 20.7 8 19 C5.36 19 2.72 19 0 19 C0 12.73 0 6.46 0 0 Z " fill="#CAF0F8" transform="translate(66,196)"/>
<path d="M0 0 C14.85 0 29.7 0 45 0 C45 1.65 45 3.3 45 5 C31.14 5 17.28 5 3 5 C3 7.31 3 9.62 3 12 C0.03 12 -2.94 12 -6 12 C-6 20.91 -6 29.82 -6 39 C-11.28 39 -16.56 39 -22 39 C-22 33.39 -22 27.78 -22 22 C-18.7 22 -15.4 22 -12 22 C-12 18.37 -12 14.74 -12 11 C-10.02 11 -8.04 11 -6 11 C-6 9.35 -6 7.7 -6 6 C-4.02 6 -2.04 6 0 6 C0 4.02 0 2.04 0 0 Z " fill="#0077B6" transform="translate(102,68)"/>
<path d="M0 0 C2.97 0 5.94 0 9 0 C9 3.3 9 6.6 9 10 C10.65 10 12.3 10 14 10 C14 15.94 14 21.88 14 28 C16.64 28 19.28 28 22 28 C22 33.61 22 39.22 22 45 C18.37 45 14.74 45 11 45 C11 38.4 11 31.8 11 25 C9.02 25 7.04 25 5 25 C5 22.36 5 19.72 5 17 C3.35 17 1.7 17 0 17 C0 11.39 0 5.78 0 0 Z " fill="#0077B6" transform="translate(44,158)"/>
<path d="M0 0 C13.53 0 27.06 0 41 0 C41 2.64 41 5.28 41 8 C27.47 8 13.94 8 0 8 C0 9.32 0 10.64 0 12 C-4.62 12 -9.24 12 -14 12 C-14 9.69 -14 7.38 -14 5 C-9.38 5 -4.76 5 0 5 C0 3.35 0 1.7 0 0 Z " fill="#CAF0F8" transform="translate(105,25)"/>
<path d="M0 0 C2.31 0 4.62 0 7 0 C7 3.63 7 7.26 7 11 C13.6 11 20.2 11 27 11 C27 14.96 27 18.92 27 23 C19.08 22.67 11.16 22.34 3 22 C3 20.68 3 19.36 3 18 C1.35 18 -0.3 18 -2 18 C-2 17.34 -2 16.68 -2 16 C-2.99 16 -3.98 16 -5 16 C-5 14.35 -5 12.7 -5 11 C-3.35 11 -1.7 11 0 11 C0 7.37 0 3.74 0 0 Z " fill="#0077B6" transform="translate(206,158)"/>
<path d="M0 0 C2.97 0 5.94 0 9 0 C9 1.65 9 3.3 9 5 C13.95 5 18.9 5 24 5 C24 14.24 24 23.48 24 33 C21.36 33 18.72 33 16 33 C16 27.72 16 22.44 16 17 C13.03 17 10.06 17 7 17 C7 13.7 7 10.4 7 7 C4.69 7 2.38 7 0 7 C0 4.69 0 2.38 0 0 Z " fill="#03045E" transform="translate(152,74)"/>
<path d="M0 0 C14.52 0 29.04 0 44 0 C44 1.32 44 2.64 44 4 C46.64 4 49.28 4 52 4 C52 5.98 52 7.96 52 10 C46.72 10 41.44 10 36 10 C36 8.68 36 7.36 36 6 C24.12 6 12.24 6 0 6 C0 4.02 0 2.04 0 0 Z " fill="#0077B6" transform="translate(116,38)"/>
<path d="M0 0 C2.64 0 5.28 0 8 0 C7.67 6.93 7.34 13.86 7 21 C14.92 21 22.84 21 31 21 C31 18.03 31 15.06 31 12 C32.98 12 34.96 12 37 12 C37 15.3 37 18.6 37 22 C35.35 22 33.7 22 32 22 C32 23.32 32 24.64 32 26 C23.75 26 15.5 26 7 26 C7 24.68 7 23.36 7 22 C4.69 22 2.38 22 0 22 C0 14.74 0 7.48 0 0 Z " fill="#00B3D7" transform="translate(110,143)"/>
<path d="M0 0 C2.31 0 4.62 0 7 0 C7 1.65 7 3.3 7 5 C8.65 5 10.3 5 12 5 C12 6.98 12 8.96 12 11 C8.92390311 11.90735251 6.248377 12.09596751 3.04785156 12.02172852 C2.06713684 12.00163223 1.08642212 11.98153595 0.07598877 11.96083069 C-1.5007663 11.92027809 -1.5007663 11.92027809 -3.109375 11.87890625 C-4.19132141 11.85529526 -5.27326782 11.83168427 -6.38800049 11.80735779 C-9.84213683 11.73081291 -13.2960438 11.64674869 -16.75 11.5625 C-19.09243671 11.50927016 -21.4348846 11.45652982 -23.77734375 11.40429688 C-29.51837095 11.27521013 -35.25922791 11.13995007 -41 11 C-41 9.35 -41 7.7 -41 6 C-27.47 6 -13.94 6 0 6 C0 4.02 0 2.04 0 0 Z " fill="#0077B6" transform="translate(146,226)"/>
<path d="M0 0 C0.99 0 1.98 0 3 0 C3 3.63 3 7.26 3 11 C1.68 11 0.36 11 -1 11 C-1 12.65 -1 14.3 -1 16 C-5.29 16 -9.58 16 -14 16 C-14 17.65 -14 19.3 -14 21 C-18.40914783 22.10228696 -22.48382401 22.07654536 -27 22 C-27 20.02 -27 18.04 -27 16 C-24.69 16 -22.38 16 -20 16 C-20 12.37 -20 8.74 -20 5 C-18.02 5 -16.04 5 -14 5 C-14 6.98 -14 8.96 -14 11 C-11.69 11 -9.38 11 -7 11 C-7 9.02 -7 7.04 -7 5 C-4.69 5 -2.38 5 0 5 C0 3.35 0 1.7 0 0 Z " fill="#03045E" transform="translate(195,209)"/>
<path d="M0 0 C1.32 0 2.64 0 4 0 C4 0.99 4 1.98 4 3 C4.66 3 5.32 3 6 3 C6 9.93 6 16.86 6 24 C7.98 24 9.96 24 12 24 C12 28.95 12 33.9 12 39 C10.02 39 8.04 39 6 39 C6 36.03 6 33.06 6 30 C3.69 30 1.38 30 -1 30 C-1.20272358 19.97644511 -0.58039956 10.00152811 0 0 Z " fill="#0A095C" transform="translate(17,129)"/>
<path d="M0 0 C4.62 0 9.24 0 14 0 C14 1.32 14 2.64 14 4 C15.32 4 16.64 4 18 4 C18 7.96 18 11.92 18 16 C15.24921116 16.91692961 13.64051087 17.10886083 10.8125 17.0625 C8.9253125 17.0315625 8.9253125 17.0315625 7 17 C7 14.69 7 12.38 7 10 C4.69 10 2.38 10 0 10 C0 6.7 0 3.4 0 0 Z " fill="#0077B6" transform="translate(188,186)"/>
<path d="M0 0 C1.98 0 3.96 0 6 0 C6 2.97 6 5.94 6 9 C7.98 9 9.96 9 12 9 C12 14.28 12 19.56 12 25 C10.02 25 8.04 25 6 25 C6 23.35 6 21.7 6 20 C4.02 20 2.04 20 0 20 C0 13.4 0 6.8 0 0 Z " fill="#0077B6" transform="translate(17,107)"/>
<path d="M0 0 C1.65 0 3.3 0 5 0 C5 13.86 5 27.72 5 42 C3.35 42 1.7 42 0 42 C0 28.14 0 14.28 0 0 Z " fill="#0077B6" transform="translate(105,101)"/>
<path d="M0 0 C13.53 0 27.06 0 41 0 C41 1.65 41 3.3 41 5 C27.47 5 13.94 5 0 5 C0 3.35 0 1.7 0 0 Z " fill="#0077B6" transform="translate(105,20)"/>
<path d="M0 0 C5.28 0 10.56 0 16 0 C16 1.32 16 2.64 16 4 C13.36 4 10.72 4 8 4 C8 7.63 8 11.26 8 15 C5.69 15 3.38 15 1 15 C1 13.35 1 11.7 1 10 C-1.31 10 -3.62 10 -6 10 C-5.67 7.69 -5.34 5.38 -5 3 C-3.35 3 -1.7 3 0 3 C0 2.01 0 1.02 0 0 Z " fill="#CAF0F8" transform="translate(152,216)"/>
<path d="M0 0 C2.97 0 5.94 0 9 0 C9 6.6 9 13.2 9 20 C6.03 20 3.06 20 0 20 C0 13.4 0 6.8 0 0 Z " fill="#03045E" transform="translate(232,126)"/>
<path d="M0 0 C2.64 0 5.28 0 8 0 C8 1.65 8 3.3 8 5 C11.63 5 15.26 5 19 5 C19 6.65 19 8.3 19 10 C20.98 10 22.96 10 25 10 C25 11.98 25 13.96 25 16 C21.7 16 18.4 16 15 16 C15 14.35 15 12.7 15 11 C12.69 11 10.38 11 8 11 C8 9.35 8 7.7 8 6 C5.36 6 2.72 6 0 6 C0 4.02 0 2.04 0 0 Z " fill="#90E0EF" transform="translate(66,209)"/>
<path d="M0 0 C6.27 0 12.54 0 19 0 C19 3.96 19 7.92 19 12 C16.69 12 14.38 12 12 12 C12 10.35 12 8.7 12 7 C8.04 7 4.08 7 0 7 C0 4.69 0 2.38 0 0 Z " fill="#CAF0F8" transform="translate(213,95)"/>
<path d="M0 0 C2.97 0 5.94 0 9 0 C9 1.65 9 3.3 9 5 C11.31 5 13.62 5 16 5 C16 8.96 16 12.92 16 17 C13.03 17 10.06 17 7 17 C7 13.7 7 10.4 7 7 C4.69 7 2.38 7 0 7 C0 4.69 0 2.38 0 0 Z " fill="#0077B6" transform="translate(152,74)"/>
<path d="M0 0 C2.64 0 5.28 0 8 0 C8 3.96 8 7.92 8 12 C5.36 12 2.72 12 0 12 C0 13.65 0 15.3 0 17 C-2.31 17 -4.62 17 -7 17 C-7 13.7 -7 10.4 -7 7 C-4.69 7 -2.38 7 0 7 C0 4.69 0 2.38 0 0 Z " fill="#0077B6" transform="translate(160,162)"/>
<path d="M0 0 C2.64 0 5.28 0 8 0 C8 5.61 8 11.22 8 17 C5.69 17 3.38 17 1 17 C1 18.32 1 19.64 1 21 C-1.31 21 -3.62 21 -6 21 C-6 19.68 -6 18.36 -6 17 C-4.02 17 -2.04 17 0 17 C0 11.39 0 5.78 0 0 Z " fill="#0077B6" transform="translate(152,126)"/>
<path d="M0 0 C3.96 0 7.92 0 12 0 C12 4.29 12 8.58 12 13 C8.04 13 4.08 13 0 13 C0 8.71 0 4.42 0 0 Z " fill="#CAF0F8" transform="translate(209,68)"/>
<path d="M0 0 C4.62 0 9.24 0 14 0 C14 1.98 14 3.96 14 6 C11.69 6 9.38 6 7 6 C7 7.65 7 9.3 7 11 C6.34 11 5.68 11 5 11 C5 12.65 5 14.3 5 16 C3.35 16 1.7 16 0 16 C0 10.72 0 5.44 0 0 Z " fill="#0077B6" transform="translate(52,69)"/>
<path d="M0 0 C1.65 0 3.3 0 5 0 C5 3.3 5 6.6 5 10 C-5.89 10.495 -5.89 10.495 -17 11 C-17 9.02 -17 7.04 -17 5 C-11.39 5 -5.78 5 0 5 C0 3.35 0 1.7 0 0 Z " fill="#90E0EF" transform="translate(100,20)"/>
<path d="M0 0 C1.98 0 3.96 0 6 0 C6 5.28 6 10.56 6 16 C2.52669872 16.69466026 0.08697137 17.12011816 -3.3125 17.0625 C-5.1378125 17.0315625 -5.1378125 17.0315625 -7 17 C-7 15.02 -7 13.04 -7 11 C-4.69 11 -2.38 11 0 11 C0 7.37 0 3.74 0 0 Z " fill="#0077B6" transform="translate(175,214)"/>
<path d="M0 0 C2.64 0 5.28 0 8 0 C8 5.61 8 11.22 8 17 C5.36 17 2.72 17 0 17 C0 11.39 0 5.78 0 0 Z " fill="#03045E" transform="translate(44,85)"/>
<path d="M0 0 C4.95 0 9.9 0 15 0 C15 3.63 15 7.26 15 11 C12.36 11 9.72 11 7 11 C7 9.35 7 7.7 7 6 C4.69 6 2.38 6 0 6 C0 4.02 0 2.04 0 0 Z " fill="#0077B6" transform="translate(51,209)"/>
<path d="M0 0 C1.65 0 3.3 0 5 0 C5 4.62 5 9.24 5 14 C1.37 14 -2.26 14 -6 14 C-6 10.7 -6 7.4 -6 4 C-4.02 4 -2.04 4 0 4 C0 2.68 0 1.36 0 0 Z " fill="#CAF0F8" transform="translate(142,165)"/>
<path d="M0 0 C2.64 0 5.28 0 8 0 C8 3.63 8 7.26 8 11 C3.38 11 -1.24 11 -6 11 C-6 9.02 -6 7.04 -6 5 C-4.02 5 -2.04 5 0 5 C0 3.35 0 1.7 0 0 Z " fill="#0077B6" transform="translate(153,96)"/>
<path d="M0 0 C3.3 0 6.6 0 10 0 C10 1.98 10 3.96 10 6 C12.97 6 15.94 6 19 6 C19 7.98 19 9.96 19 12 C15.7 12 12.4 12 9 12 C9 10.02 9 8.04 9 6 C6.03 6 3.06 6 0 6 C0 4.02 0 2.04 0 0 Z " fill="#0077B6" transform="translate(81,225)"/>
<path d="M0 0 C2.64 0 5.28 0 8 0 C8 0.99 8 1.98 8 3 C10.64 3 13.28 3 16 3 C16 4.98 16 6.96 16 9 C10.72 9 5.44 9 0 9 C0 6.03 0 3.06 0 0 Z " fill="#CAF0F8" transform="translate(187,200)"/>
<path d="M0 0 C2.31 0 4.62 0 7 0 C7 5.61 7 11.22 7 17 C4.69 17 2.38 17 0 17 C0 11.39 0 5.78 0 0 Z " fill="#03045E" transform="translate(37,126)"/>
<path d="M0 0 C2.31 0 4.62 0 7 0 C7 5.61 7 11.22 7 17 C4.69 17 2.38 17 0 17 C0 11.39 0 5.78 0 0 Z " fill="#03045E" transform="translate(206,85)"/>
<path d="M0 0 C2.31 0 4.62 0 7 0 C7 3.63 7 7.26 7 11 C5.02 11 3.04 11 1 11 C1 12.98 1 14.96 1 17 C-0.98 17 -2.96 17 -5 17 C-5 15.02 -5 13.04 -5 11 C-3.35 11 -1.7 11 0 11 C0 7.37 0 3.74 0 0 Z " fill="#03045E" transform="translate(28,74)"/>
<path d="M0 0 C2.31 0 4.62 0 7 0 C7 1.65 7 3.3 7 5 C8.65 5 10.3 5 12 5 C12 6.98 12 8.96 12 11 C7.91556885 12.53166168 4.20544343 11.63081652 0 11 C0 7.37 0 3.74 0 0 Z " fill="#05055D" transform="translate(146,226)"/>
<path d="M0 0 C2.97 0 5.94 0 9 0 C9 3.96 9 7.92 9 12 C6.03 12 3.06 12 0 12 C0 8.04 0 4.08 0 0 Z " fill="#0077B6" transform="translate(232,107)"/>
<path d="M0 0 C2.31 0 4.62 0 7 0 C7 4.95 7 9.9 7 15 C4.69 15 2.38 15 0 15 C0 10.05 0 5.1 0 0 Z " fill="#0077B6" transform="translate(38,182)"/>
<path d="M0 0 C1.98 0 3.96 0 6 0 C6 5.61 6 11.22 6 17 C4.02 17 2.04 17 0 17 C0 11.39 0 5.78 0 0 Z " fill="#0077B6" transform="translate(217,126)"/>
<path d="M0 0 C2.97 0 5.94 0 9 0 C9 3.63 9 7.26 9 11 C6.03 11 3.06 11 0 11 C0 7.37 0 3.74 0 0 Z " fill="#03045E" transform="translate(44,158)"/>
<path d="M0 0 C2.64 0 5.28 0 8 0 C8 3.96 8 7.92 8 12 C5.36 12 2.72 12 0 12 C0 8.04 0 4.08 0 0 Z " fill="#03045E" transform="translate(225,169)"/>
<path d="M0 0 C6.27 0 12.54 0 19 0 C19 1.65 19 3.3 19 5 C12.73 5 6.46 5 0 5 C0 3.35 0 1.7 0 0 Z " fill="#0077B6" transform="translate(128,219)"/>
<path d="M0 0 C4.95 0 9.9 0 15 0 C15 1.98 15 3.96 15 6 C10.05 6 5.1 6 0 6 C0 4.02 0 2.04 0 0 Z " fill="#0077B6" transform="translate(85,42)"/>
<path d="M0 0 C4.95 0 9.9 0 15 0 C15 1.98 15 3.96 15 6 C10.05 6 5.1 6 0 6 C0 4.02 0 2.04 0 0 Z " fill="#0077B6" transform="translate(153,26)"/>
<path d="M0 0 C5.61 0 11.22 0 17 0 C17 1.65 17 3.3 17 5 C11.39 5 5.78 5 0 5 C0 3.35 0 1.7 0 0 Z " fill="#0077B6" transform="translate(105,218)"/>
<path d="M0 0 C5.28 0 10.56 0 16 0 C16 1.65 16 3.3 16 5 C10.72 5 5.44 5 0 5 C0 3.35 0 1.7 0 0 Z " fill="#0077B6" transform="translate(152,211)"/>
<path d="M0 0 C2.64 0 5.28 0 8 0 C8 3.3 8 6.6 8 10 C5.36 10 2.72 10 0 10 C0 6.7 0 3.4 0 0 Z " fill="#0077B6" transform="translate(66,53)"/>
<path d="M0 0 C2.31 0 4.62 0 7 0 C7 3.63 7 7.26 7 11 C4.69 11 2.38 11 0 11 C0 7.37 0 3.74 0 0 Z " fill="#03045E" transform="translate(206,158)"/>
<path d="M0 0 C2.31 0 4.62 0 7 0 C7 3.63 7 7.26 7 11 C4.69 11 2.38 11 0 11 C0 7.37 0 3.74 0 0 Z " fill="#03045E" transform="translate(22,96)"/>
<path d="M0 0 C2.31 0 4.62 0 7 0 C7 3.63 7 7.26 7 11 C4.69 11 2.38 11 0 11 C0 7.37 0 3.74 0 0 Z " fill="#0077B6" transform="translate(195,41)"/>
<path d="M0 0 C3.63 0 7.26 0 11 0 C11 2.31 11 4.62 11 7 C7.37 7 3.74 7 0 7 C0 4.69 0 2.38 0 0 Z " fill="#CAF0F8" transform="translate(74,41)"/>
<path d="M0 0 C2.64 0 5.28 0 8 0 C8 2.97 8 5.94 8 9 C5.36 9 2.72 9 0 9 C0 6.03 0 3.06 0 0 Z " fill="#0077B6" transform="translate(209,188)"/>
<path d="M0 0 C3.96 0 7.92 0 12 0 C12 1.98 12 3.96 12 6 C8.04 6 4.08 6 0 6 C0 4.02 0 2.04 0 0 Z " fill="#0077B6" transform="translate(188,69)"/>
<path d="M0 0 C4.95 0 9.9 0 15 0 C14.67 1.65 14.34 3.3 14 5 C9.38 5 4.76 5 0 5 C0 3.35 0 1.7 0 0 Z " fill="#91E0ED" transform="translate(90,211)"/>
<path d="M0 0 C2.31 0 4.62 0 7 0 C7 3.3 7 6.6 7 10 C4.69 10 2.38 10 0 10 C0 6.7 0 3.4 0 0 Z " fill="#03045E" transform="translate(175,53)"/>
<path d="M0 0 C1.98 0 3.96 0 6 0 C6 3.63 6 7.26 6 11 C4.02 11 2.04 11 0 11 C0 7.37 0 3.74 0 0 Z " fill="#0077B6" transform="translate(111,90)"/>
<path d="M0 0 C3.3 0 6.6 0 10 0 C10 1.98 10 3.96 10 6 C6.7 6 3.4 6 0 6 C0 4.02 0 2.04 0 0 Z " fill="#03045E" transform="translate(81,225)"/>
<path d="M0 0 C1.98 0 3.96 0 6 0 C6 3.3 6 6.6 6 10 C4.02 10 2.04 10 0 10 C0 6.7 0 3.4 0 0 Z " fill="#0077B6" transform="translate(141,155)"/>
<path d="M0 0 C1.98 0 3.96 0 6 0 C6 3.3 6 6.6 6 10 C4.02 10 2.04 10 0 10 C0 6.7 0 3.4 0 0 Z " fill="#03045E" transform="translate(200,75)"/>
<path d="M0 0 C2.64 0 5.28 0 8 0 C8 2.31 8 4.62 8 7 C5.36 7 2.72 7 0 7 C0 4.69 0 2.38 0 0 Z " fill="#0077B6" transform="translate(59,152)"/>
<path d="M0 0 C2.97 0 5.94 0 9 0 C9 1.98 9 3.96 9 6 C6.03 6 3.06 6 0 6 C0 4.02 0 2.04 0 0 Z " fill="#03045E" transform="translate(50,47)"/>
<path d="M0 0 C2.97 0 5.94 0 9 0 C9 1.98 9 3.96 9 6 C6.03 6 3.06 6 0 6 C0 4.02 0 2.04 0 0 Z " fill="#0077B6" transform="translate(65,41)"/>
<path d="M0 0 C4.29 0 8.58 0 13 0 C13 1.32 13 2.64 13 4 C8.71 4 4.42 4 0 4 C0 2.68 0 1.36 0 0 Z " fill="#90E0EF" transform="translate(182,196)"/>
<path d="M0 0 C2.31 0 4.62 0 7 0 C7 2.31 7 4.62 7 7 C4.69 7 2.38 7 0 7 C0 4.69 0 2.38 0 0 Z " fill="#03045E" transform="translate(38,62)"/>
<path d="M0 0 C2.64 0 5.28 0 8 0 C8 1.98 8 3.96 8 6 C5.36 6 2.72 6 0 6 C0 4.02 0 2.04 0 0 Z " fill="#03045E" transform="translate(168,225)"/>
<path d="M0 0 C2.64 0 5.28 0 8 0 C8 1.98 8 3.96 8 6 C5.36 6 2.72 6 0 6 C0 4.02 0 2.04 0 0 Z " fill="#90E0EF" transform="translate(66,220)"/>
<path d="M0 0 C2.64 0 5.28 0 8 0 C8 1.98 8 3.96 8 6 C5.36 6 2.72 6 0 6 C0 4.02 0 2.04 0 0 Z " fill="#90E0EF" transform="translate(195,203)"/>
<path d="M0 0 C2.64 0 5.28 0 8 0 C8 1.98 8 3.96 8 6 C5.36 6 2.72 6 0 6 C0 4.02 0 2.04 0 0 Z " fill="#0077B6" transform="translate(59,107)"/>
<path d="M0 0 C2.64 0 5.28 0 8 0 C8 1.98 8 3.96 8 6 C5.36 6 2.72 6 0 6 C0 4.02 0 2.04 0 0 Z " fill="#00B4D8" transform="translate(160,42)"/>
<path d="M0 0 C2.64 0 5.28 0 8 0 C8 1.98 8 3.96 8 6 C5.36 6 2.72 6 0 6 C0 4.02 0 2.04 0 0 Z " fill="#03045E" transform="translate(83,25)"/>
<path d="M0 0 C2.97 0 5.94 0 9 0 C9 1.65 9 3.3 9 5 C6.03 5 3.06 5 0 5 C0 3.35 0 1.7 0 0 Z " fill="#00B4D8" transform="translate(96,174)"/>
<path d="M0 0 C1.98 0 3.96 0 6 0 C6 2.31 6 4.62 6 7 C4.02 7 2.04 7 0 7 C0 4.69 0 2.38 0 0 Z " fill="#03045E" transform="translate(29,168)"/>
<path d="M0 0 C1.98 0 3.96 0 6 0 C6 2.31 6 4.62 6 7 C4.02 7 2.04 7 0 7 C0 4.69 0 2.38 0 0 Z " fill="#0077B6" transform="translate(147,112)"/>
<path d="M0 0 C1.98 0 3.96 0 6 0 C6 2.31 6 4.62 6 7 C4.02 7 2.04 7 0 7 C0 4.69 0 2.38 0 0 Z " fill="#03045E" transform="translate(105,37)"/>
<path d="M0 0 C1.65 0 3.3 0 5 0 C5 2.64 5 5.28 5 8 C3.35 8 1.7 8 0 8 C0 5.36 0 2.72 0 0 Z " fill="#90E0EF" transform="translate(147,68)"/>
<path d="M0 0 C1.98 0 3.96 0 6 0 C6 1.98 6 3.96 6 6 C4.02 6 2.04 6 0 6 C0 4.02 0 2.04 0 0 Z " fill="#03045E" transform="translate(75,121)"/>
<path d="M0 0 C1.98 0 3.96 0 6 0 C6 1.98 6 3.96 6 6 C4.02 6 2.04 6 0 6 C0 4.02 0 2.04 0 0 Z " fill="#0077B6" transform="translate(38,113)"/>
<path d="M0 0 C1.98 0 3.96 0 6 0 C6 1.98 6 3.96 6 6 C4.02 6 2.04 6 0 6 C0 4.02 0 2.04 0 0 Z " fill="#0077B6" transform="translate(23,85)"/>
<path d="M0 0 C1.32 0 2.64 0 4 0 C4 2.97 4 5.94 4 9 C2.68 9 1.36 9 0 9 C0 6.03 0 3.06 0 0 Z " fill="#03045E" transform="translate(221,71)"/>
<path d="M0 0 C2.31 0 4.62 0 7 0 C7 1.65 7 3.3 7 5 C4.69 5 2.38 5 0 5 C0 3.35 0 1.7 0 0 Z " fill="#0077B6" transform="translate(146,226)"/>
<path d="M0 0 C2.31 0 4.62 0 7 0 C7 1.65 7 3.3 7 5 C4.69 5 2.38 5 0 5 C0 3.35 0 1.7 0 0 Z " fill="#03045E" transform="translate(225,80)"/>
<path d="M0 0 C2.64 0 5.28 0 8 0 C8 1.32 8 2.64 8 4 C5.36 4 2.72 4 0 4 C0 2.68 0 1.36 0 0 Z " fill="#90E0EF" transform="translate(66,196)"/>
<path d="M0 0 C1.65 0 3.3 0 5 0 C5 1.98 5 3.96 5 6 C3.35 6 1.7 6 0 6 C0 4.02 0 2.04 0 0 Z " fill="#0077B6" transform="translate(111,208)"/>
<path d="M0 0 C1.98 0 3.96 0 6 0 C6 1.65 6 3.3 6 5 C4.02 5 2.04 5 0 5 C0 3.35 0 1.7 0 0 Z " fill="#0077B6" transform="translate(200,75)"/>
<path d="M0 0 C1.65 0 3.3 0 5 0 C5 1.65 5 3.3 5 5 C3.35 5 1.7 5 0 5 C0 3.35 0 1.7 0 0 Z " fill="#90E0EF" transform="translate(85,206)"/>
<path d="M0 0 C1.65 0 3.3 0 5 0 C5 1.65 5 3.3 5 5 C3.35 5 1.7 5 0 5 C0 3.35 0 1.7 0 0 Z " fill="#90E0EF" transform="translate(80,196)"/>
<path d="M0 0 C1.65 0 3.3 0 5 0 C5 1.65 5 3.3 5 5 C3.35 5 1.7 5 0 5 C0 3.35 0 1.7 0 0 Z " fill="#0077B6" transform="translate(142,96)"/>
<path d="M0 0 C1.32 0 2.64 0 4 0 C4 1.98 4 3.96 4 6 C2.68 6 1.36 6 0 6 C0 4.02 0 2.04 0 0 Z " fill="#03045E" transform="translate(96,231)"/>
<path d="M0 0 C1.32 0 2.64 0 4 0 C4 1.98 4 3.96 4 6 C2.68 6 1.36 6 0 6 C0 4.02 0 2.04 0 0 Z " fill="#0077B6" transform="translate(81,225)"/>
<path d="M0 0 C1.98 0 3.96 0 6 0 C6 1.32 6 2.64 6 4 C4.02 4 2.04 4 0 4 C0 2.68 0 1.36 0 0 Z " fill="#90E0EF" transform="translate(188,32)"/>
<path d="M0 0 C1.65 0 3.3 0 5 0 C5 1.32 5 2.64 5 4 C3.35 4 1.7 4 0 4 C0 2.68 0 1.36 0 0 Z " fill="#0077B6" transform="translate(182,196)"/>
<path d="" fill="#FFBF40" transform="translate(0,0)"/>
<path d="" fill="#BF8000" transform="translate(0,0)"/>
</svg>
