<?xml version="1.0" encoding="UTF-8"?>
<svg version="1.1" xmlns="http://www.w3.org/2000/svg" width="256" height="256">
<path d="M0 0 C17.49 0 34.98 0 53 0 C53 1.98 53 3.96 53 6 C57.95 6 62.9 6 68 6 C68 7.65 68 9.3 68 11 C72.29 11 76.58 11 81 11 C81 12.65 81 14.3 81 16 C83.31 16 85.62 16 88 16 C88 17.65 88 19.3 88 21 C92.62 21 97.24 21 102 21 C102 24.96 102 28.92 102 33 C106.95 33 111.9 33 117 33 C117 34.65 117 36.3 117 38 C114.36 38 111.72 38 109 38 C109 39.65 109 41.3 109 43 C114.28 43 119.56 43 125 43 C125.33 48.28 125.66 53.56 126 59 C128.31 59.33 130.62 59.66 133 60 C132.67 61.65 132.34 63.3 132 65 C133.32 65 134.64 65 136 65 C136 72.26 136 79.52 136 87 C137.65 87 139.3 87 141 87 C141 90.96 141 94.92 141 99 C138.36 99 135.72 99 133 99 C133 101.31 133 103.62 133 106 C133.763125 105.814375 134.52625 105.62875 135.3125 105.4375 C138 105 138 105 141 106 C143.78680178 111.57360356 142.06415847 120.01410863 141 126 C134.25 127.125 134.25 127.125 132 126 C132.14063283 129.64605302 132.28846818 133.29178139 132.4375 136.9375 C132.47681641 137.95908203 132.51613281 138.98066406 132.55664062 140.03320312 C132.75218346 144.74127284 133.0072906 149.38991429 133.59765625 154.06640625 C134 158 134 158 133 161 C130.36 161 127.72 161 125 161 C125 161.66 125 162.32 125 163 C123.68 163 122.36 163 121 163 C121 164.65 121 166.3 121 168 C119.68 168 118.36 168 117 168 C117 170.97 117 173.94 117 177 C114.36 177 111.72 177 109 177 C109 178.65 109 180.3 109 182 C107.02 182.33 105.04 182.66 103 183 C102.67 184.65 102.34 186.3 102 188 C100.68 188 99.36 188 98 188 C98 191.96 98 195.92 98 200 C96.68 200 95.36 200 94 200 C94 201.65 94 203.3 94 205 C89.71 205 85.42 205 81 205 C81 206.65 81 208.3 81 210 C77.04 210.33 73.08 210.66 69 211 C68.67 212.65 68.34 214.3 68 216 C58.85599748 216.94478385 49.79557981 217.13324312 40.609375 217.09765625 C39.1692103 217.09578582 37.72904496 217.09436488 36.28887939 217.09336853 C32.54073254 217.08959252 28.79262586 217.07980566 25.04449463 217.06866455 C21.20284569 217.05834331 17.36119012 217.05384821 13.51953125 217.04882812 C6.01300273 217.03817779 -1.49349296 217.02116226 -9 217 C-9.33 215.02 -9.66 213.04 -10 211 C-12.97 210.67 -15.94 210.34 -19 210 C-19 206.7 -19 203.4 -19 200 C-21.31 200 -23.62 200 -26 200 C-26 198.35 -26 196.7 -26 195 C-28.64 195 -31.28 195 -34 195 C-34 196.65 -34 198.3 -34 200 C-36.31 200 -38.62 200 -41 200 C-41.495 197.525 -41.495 197.525 -42 195 C-44.31 194.67 -46.62 194.34 -49 194 C-49 188.39 -49 182.78 -49 177 C-52.96 177 -56.92 177 -61 177 C-61.33 172.38 -61.66 167.76 -62 163 C-62.99 162.67 -63.98 162.34 -65 162 C-65 159.69 -65 157.38 -65 155 C-66.98 155 -68.96 155 -71 155 C-71.33 153.02 -71.66 151.04 -72 149 C-73.65 148.67 -75.3 148.34 -77 148 C-77 145.03 -77 142.06 -77 139 C-78.98 139 -80.96 139 -83 139 C-83.0246985 135.04900072 -83.04285923 131.09803126 -83.05493164 127.14697266 C-83.06244036 125.14093449 -83.0751447 123.13491798 -83.08789062 121.12890625 C-83.09111328 119.87207031 -83.09433594 118.61523438 -83.09765625 117.3203125 C-83.10551147 115.57645264 -83.10551147 115.57645264 -83.11352539 113.79736328 C-83 111 -83 111 -82 109 C-81.01 109.33 -80.02 109.66 -79 110 C-79 110.66 -79 111.32 -79 112 C-78.34 112 -77.68 112 -77 112 C-77 110.35 -77 108.7 -77 107 C-78.98 107 -80.96 107 -83 107 C-83 100.4 -83 93.8 -83 87 C-80.525 86.505 -80.525 86.505 -78 86 C-77.67 82.7 -77.34 79.4 -77 76 C-75.02 76 -73.04 76 -71 76 C-71 74.35 -71 72.7 -71 71 C-72.98 71 -74.96 71 -77 71 C-77 69.02 -77 67.04 -77 65 C-75.35 65 -73.7 65 -72 65 C-72 61.37 -72 57.74 -72 54 C-68.37 54 -64.74 54 -61 54 C-61.33 50.37 -61.66 46.74 -62 43 C-57.37078475 41.9838308 -53.65537393 42.16203269 -49 43 C-49 41.35 -49 39.7 -49 38 C-51.31 38 -53.62 38 -56 38 C-56 36.35 -56 34.7 -56 33 C-53.03 32.505 -53.03 32.505 -50 32 C-49.67 30.35 -49.34 28.7 -49 27 C-44.38 26.67 -39.76 26.34 -35 26 C-34.67 24.35 -34.34 22.7 -34 21 C-36.31 21 -38.62 21 -41 21 C-41 19.35 -41 17.7 -41 16 C-39.02 15.67 -37.04 15.34 -35 15 C-34.67 13.68 -34.34 12.36 -34 11 C-31.36 11 -28.72 11 -26 11 C-26 12.65 -26 14.3 -26 16 C-23.69 16 -21.38 16 -19 16 C-19 14.35 -19 12.7 -19 11 C-18.01 11 -17.02 11 -16 11 C-16.495 9.515 -16.495 9.515 -17 8 C-16.34 7.01 -15.68 6.02 -15 5 C-10.05 5.33 -5.1 5.66 0 6 C0 4.02 0 2.04 0 0 Z M-33 16 C-33 17.65 -33 19.3 -33 21 C-31.02 21 -29.04 21 -27 21 C-27 19.35 -27 17.7 -27 16 C-28.98 16 -30.96 16 -33 16 Z M5 24 C5 25.32 5 26.64 5 28 C-1.6 28 -8.2 28 -15 28 C-15 29.65 -15 31.3 -15 33 C-18.63 33 -22.26 33 -26 33 C-26 36.3 -26 39.6 -26 43 C-28.64 43 -31.28 43 -34 43 C-34 46.96 -34 50.92 -34 55 C-36.31 55 -38.62 55 -41 55 C-41 56.65 -41 58.3 -41 60 C-41.66 60 -42.32 60 -43 60 C-43 61.65 -43 63.3 -43 65 C-44.65 65 -46.3 65 -48 65 C-48 70.28 -48 75.56 -48 81 C-51.465 81.495 -51.465 81.495 -55 82 C-56.41774838 83.18852855 -56.41774838 83.18852855 -56.09765625 86.59765625 C-56.0909822 88.08596867 -56.07902183 89.57426432 -56.0625 91.0625 C-56.05798828 91.82111328 -56.05347656 92.57972656 -56.04882812 93.36132812 C-56.0370068 95.24091871 -56.01907078 97.12046899 -56 99 C-57.98 99 -59.96 99 -62 99 C-62 101.31 -62 103.62 -62 106 C-60.02 106 -58.04 106 -56 106 C-56 116.56 -56 127.12 -56 138 C-53.36 138.33 -50.72 138.66 -48 139 C-48.01160156 139.63808594 -48.02320313 140.27617187 -48.03515625 140.93359375 C-48.04417969 141.75988281 -48.05320312 142.58617187 -48.0625 143.4375 C-48.07410156 144.26121094 -48.08570313 145.08492188 -48.09765625 145.93359375 C-48.23267348 147.99163938 -48.23267348 147.99163938 -47 149 C-45.35 149 -43.7 149 -42 149 C-42 154.61 -42 160.22 -42 166 C-39.36 166 -36.72 166 -34 166 C-34 169.3 -34 172.6 -34 176 C-31.36 176 -28.72 176 -26 176 C-26 179.3 -26 182.6 -26 186 C-20.72 186 -15.44 186 -10 186 C-10 187.65 -10 189.3 -10 191 C-5.38 191 -0.76 191 4 191 C4 193.31 4 195.62 4 198 C9.94 198 15.88 198 22 198 C22 199.98 22 201.96 22 204 C23.98 204 25.96 204 28 204 C28 202.35 28 200.7 28 199 C35.92 199 43.84 199 52 199 C52 196.36 52 193.72 52 191 C57.28 191 62.56 191 68 191 C68 189.35 68 187.7 68 186 C72.62 186 77.24 186 82 186 C82 182.7 82 179.4 82 176 C83.98 176 85.96 176 88 176 C88 172.7 88 169.4 88 166 C91.96 166 95.92 166 100 166 C100 164.02 100 162.04 100 160 C101.32 160 102.64 160 104 160 C104 158.02 104 156.04 104 154 C103.01 154 102.02 154 101 154 C101 152.35 101 150.7 101 149 C102.65 149 104.3 149 106 149 C106 145.37 106 141.74 106 138 C109.63 138 113.26 138 117 138 C117 127.44 117 116.88 117 106 C118.65 106 120.3 106 122 106 C122 103.69 122 101.38 122 99 C120.68 99 119.36 99 118 99 C118 93.39 118 87.78 118 82 C114.37 82 110.74 82 107 82 C106.67 76.39 106.34 70.78 106 65 C104.35 65 102.7 65 101 65 C100.67 61.7 100.34 58.4 100 55 C96.04 55 92.08 55 88 55 C88 51.04 88 47.08 88 43 C83.71 43 79.42 43 75 43 C75 39.7 75 36.4 75 33 C72.69 33 70.38 33 68 33 C68 31.35 68 29.7 68 28 C62.72 28 57.44 28 52 28 C52 26.68 52 25.36 52 24 C36.49 24 20.98 24 5 24 Z " fill="#EEBA41" transform="translate(100,20)"/>
<path d="M0 0 C16.5 0 33 0 50 0 C50 1.98 50 3.96 50 6 C52.97 6 55.94 6 59 6 C59.495 7.98 59.495 7.98 60 10 C60.67546875 9.97679688 61.3509375 9.95359375 62.046875 9.9296875 C63.38492188 9.90261719 63.38492188 9.90261719 64.75 9.875 C66.07257813 9.84019531 66.07257813 9.84019531 67.421875 9.8046875 C70 10 70 10 74 12 C74 20.58 74 29.16 74 38 C75.65 38.33 77.3 38.66 79 39 C79.495 43.455 79.495 43.455 80 48 C81.98 48.33 83.96 48.66 86 49 C86 52.3 86 55.6 86 59 C83.69 59 81.38 59 79 59 C79 64.28 79 69.56 79 75 C77.68 75 76.36 75 75 75 C75.495 78.465 75.495 78.465 76 82 C77.485 82.495 77.485 82.495 79 83 C79 85.64 79 88.28 79 91 C77.02 91 75.04 91 73 91 C73 93.97 73 96.94 73 100 C71.02 100.33 69.04 100.66 67 101 C66.67 102.65 66.34 104.3 66 106 C62.535 106.495 62.535 106.495 59 107 C58.505 108.98 58.505 108.98 58 111 C55.69 111 53.38 111 51 111 C51 114.3 51 117.6 51 121 C35.16 121 19.32 121 3 121 C3 117.7 3 114.4 3 111 C-1.62 111 -6.24 111 -11 111 C-11.33 105.72 -11.66 100.44 -12 95 C-13.98 94.67 -15.96 94.34 -18 94 C-18 90.7 -18 87.4 -18 84 C-18.99 84 -19.98 84 -21 84 C-21 75.75 -21 67.5 -21 59 C-22.98 59 -24.96 59 -27 59 C-27 57.02 -27 55.04 -27 53 C-25.02 53 -23.04 53 -21 53 C-21 50.03 -21 47.06 -21 44 C-23.31 44 -25.62 44 -28 44 C-28 42.35 -28 40.7 -28 39 C-26.02 39 -24.04 39 -22 39 C-22 33.39 -22 27.78 -22 22 C-19.03 21.67 -16.06 21.34 -13 21 C-12.67 17.7 -12.34 14.4 -12 11 C-10.02 11 -8.04 11 -6 11 C-6 9.35 -6 7.7 -6 6 C-4.35 5.67 -2.7 5.34 -1 5 C-0.67 3.35 -0.34 1.7 0 0 Z M15 22 C15 25.63 15 29.26 15 33 C12.69 33 10.38 33 8 33 C8 46.86 8 60.72 8 75 C10.31 75 12.62 75 15 75 C14.99214478 75.94637329 14.99214478 75.94637329 14.98413086 76.91186523 C14.96342174 79.75373347 14.95035934 82.59558588 14.9375 85.4375 C14.92912109 86.43072266 14.92074219 87.42394531 14.91210938 88.44726562 C14.90727539 89.86362305 14.90727539 89.86362305 14.90234375 91.30859375 C14.89710693 92.18314209 14.89187012 93.05769043 14.88647461 93.95874023 C14.77215191 95.99440206 14.77215191 95.99440206 16 97 C17.69558726 97.09932153 19.39525747 97.13080007 21.09375 97.1328125 C22.12371094 97.13410156 23.15367188 97.13539063 24.21484375 97.13671875 C25.29894531 97.13285156 26.38304687 97.12898438 27.5 97.125 C29.12615234 97.13080078 29.12615234 97.13080078 30.78515625 97.13671875 C31.81511719 97.13542969 32.84507812 97.13414062 33.90625 97.1328125 C34.85822266 97.13168457 35.81019531 97.13055664 36.79101562 97.12939453 C38.97452138 97.24699456 38.97452138 97.24699456 40 96 C39.91062197 94.47480724 39.75462854 92.95318071 39.5625 91.4375 C39.46066406 90.61121094 39.35882813 89.78492188 39.25390625 88.93359375 C39.17011719 88.29550781 39.08632812 87.65742188 39 87 C40.98 87 42.96 87 45 87 C45 83.04 45 79.08 45 75 C46.65 75 48.3 75 50 75 C50 67.08 50 59.16 50 51 C48.35 51 46.7 51 45 51 C45 45.06 45 39.12 45 33 C43.35 33 41.7 33 40 33 C40 29.37 40 25.74 40 22 C31.75 22 23.5 22 15 22 Z " fill="#EEB941" transform="translate(102,68)"/>
<path d="M0 0 C2.31 0 4.62 0 7 0 C7 1.98 7 3.96 7 6 C11.95 6 16.9 6 22 6 C22 7.65 22 9.3 22 11 C26.29 11 30.58 11 35 11 C35 12.65 35 14.3 35 16 C37.31 16 39.62 16 42 16 C42 17.65 42 19.3 42 21 C46.62 21 51.24 21 56 21 C56 24.96 56 28.92 56 33 C60.95 33 65.9 33 71 33 C71 34.65 71 36.3 71 38 C68.36 38 65.72 38 63 38 C63 39.65 63 41.3 63 43 C68.28 43 73.56 43 79 43 C79.33 48.28 79.66 53.56 80 59 C82.31 59.33 84.62 59.66 87 60 C86.67 61.65 86.34 63.3 86 65 C87.32 65 88.64 65 90 65 C90 72.26 90 79.52 90 87 C91.65 87 93.3 87 95 87 C95 90.96 95 94.92 95 99 C92.03 99 89.06 99 86 99 C86 91.41 86 83.82 86 76 C79.73 75.67 73.46 75.34 67 75 C67 77.31 67 79.62 67 82 C65.0085944 82.38133299 63.00720923 82.71325582 61 83 C60 82 60 82 59.90234375 78.18359375 C59.90901911 76.60153318 59.92098125 75.01948841 59.9375 73.4375 C59.94201172 72.63119141 59.94652344 71.82488281 59.95117188 70.99414062 C59.96299482 68.99606244 59.98093086 66.99802217 60 65 C58.35 65 56.7 65 55 65 C54.67 61.7 54.34 58.4 54 55 C50.04 55 46.08 55 42 55 C42 51.04 42 47.08 42 43 C37.71 43 33.42 43 29 43 C29 39.7 29 36.4 29 33 C26.69 33 24.38 33 22 33 C22 31.35 22 29.7 22 28 C16.72 28 11.44 28 6 28 C6 26.68 6 25.36 6 24 C-7.53 24 -21.06 24 -35 24 C-35 21.69 -35 19.38 -35 17 C-41.6 17 -48.2 17 -55 17 C-55 14.69 -55 12.38 -55 10 C-50.38 10 -45.76 10 -41 10 C-41 8.35 -41 6.7 -41 5 C-27.47 5 -13.94 5 0 5 C0 3.35 0 1.7 0 0 Z " fill="#EEBA41" transform="translate(146,20)"/>
<path d="M0 0 C1.65 0 3.3 0 5 0 C5 1.98 5 3.96 5 6 C7.97 6 10.94 6 14 6 C14.495 7.98 14.495 7.98 15 10 C15.67546875 9.97679688 16.3509375 9.95359375 17.046875 9.9296875 C18.38492188 9.90261719 18.38492188 9.90261719 19.75 9.875 C21.07257813 9.84019531 21.07257813 9.84019531 22.421875 9.8046875 C25 10 25 10 29 12 C29 20.58 29 29.16 29 38 C30.65 38.33 32.3 38.66 34 39 C34.495 43.455 34.495 43.455 35 48 C36.98 48.33 38.96 48.66 41 49 C41 52.3 41 55.6 41 59 C38.69 59 36.38 59 34 59 C34 64.28 34 69.56 34 75 C32.68 75 31.36 75 30 75 C30.495 78.465 30.495 78.465 31 82 C32.485 82.495 32.485 82.495 34 83 C34 85.64 34 88.28 34 91 C32.02 91 30.04 91 28 91 C28 93.97 28 96.94 28 100 C26.02 100.33 24.04 100.66 22 101 C21.67 102.65 21.34 104.3 21 106 C17.535 106.495 17.535 106.495 14 107 C13.505 108.98 13.505 108.98 13 111 C10.69 111 8.38 111 6 111 C6 111.99 6 112.98 6 114 C4.02 114 2.04 114 0 114 C0 113.01 0 112.02 0 111 C-3.63 111 -7.26 111 -11 111 C-11 107.7 -11 104.4 -11 101 C-9.02 101 -7.04 101 -5 101 C-5 99.68 -5 98.36 -5 97 C-3.35 97 -1.7 97 0 97 C-0.05329468 96.10692139 -0.05329468 96.10692139 -0.10766602 95.19580078 C-0.26498794 92.50583226 -0.41384562 89.81546083 -0.5625 87.125 C-0.64661133 85.71927734 -0.64661133 85.71927734 -0.73242188 84.28515625 C-0.78076172 83.38925781 -0.82910156 82.49335938 -0.87890625 81.5703125 C-0.9260376 80.74289551 -0.97316895 79.91547852 -1.02172852 79.06298828 C-1 77 -1 77 0 75 C1.65 75 3.3 75 5 75 C5 67.08 5 59.16 5 51 C3.35 51 1.7 51 0 51 C0 47.04 0 43.08 0 39 C4.62 39 9.24 39 14 39 C14 35.37 14 31.74 14 28 C11.36 28 8.72 28 6 28 C6 24.37 6 20.74 6 17 C3.69 17 1.38 17 -1 17 C-1 15.35 -1 13.7 -1 12 C-2.98 12 -4.96 12 -7 12 C-7 13.65 -7 15.3 -7 17 C-13.27 17 -19.54 17 -26 17 C-26 15.35 -26 13.7 -26 12 C-29.3 12 -32.6 12 -36 12 C-36 13.65 -36 15.3 -36 17 C-37.98 17 -39.96 17 -42 17 C-42 13.04 -42 9.08 -42 5 C-28.14 5 -14.28 5 0 5 C0 3.35 0 1.7 0 0 Z " fill="#EEBA41" transform="translate(147,68)"/>
<path d="M0 0 C15.18 0 30.36 0 46 0 C46 1.65 46 3.3 46 5 C32.47 5 18.94 5 5 5 C5 6.65 5 8.3 5 10 C0.38 10 -4.24 10 -9 10 C-9 12.31 -9 14.62 -9 17 C-2.4 17 4.2 17 11 17 C11 19.31 11 21.62 11 24 C9.02 24 7.04 24 5 24 C5 25.32 5 26.64 5 28 C-1.6 28 -8.2 28 -15 28 C-15 29.65 -15 31.3 -15 33 C-18.63 33 -22.26 33 -26 33 C-26 36.3 -26 39.6 -26 43 C-28.64 43 -31.28 43 -34 43 C-34 46.96 -34 50.92 -34 55 C-36.31 55 -38.62 55 -41 55 C-41 56.65 -41 58.3 -41 60 C-41.66 60 -42.32 60 -43 60 C-43 61.65 -43 63.3 -43 65 C-44.65 65 -46.3 65 -48 65 C-47.75636719 65.79857422 -47.75636719 65.79857422 -47.5078125 66.61328125 C-46.89004806 69.51677413 -46.86777178 72.22031678 -46.875 75.1875 C-46.87113281 76.78658203 -46.87113281 76.78658203 -46.8671875 78.41796875 C-47 81 -47 81 -48 82 C-50.32817964 82.36760731 -52.6618385 82.70241581 -55 83 C-55.33 83.99 -55.66 84.98 -56 86 C-66.395 86.495 -66.395 86.495 -77 87 C-77 89.97 -77 92.94 -77 96 C-75.02 96 -73.04 96 -71 96 C-71 101.28 -71 106.56 -71 112 C-72.98 112 -74.96 112 -77 112 C-77 110.35 -77 108.7 -77 107 C-78.98 107 -80.96 107 -83 107 C-83 100.4 -83 93.8 -83 87 C-80.525 86.505 -80.525 86.505 -78 86 C-77.67 82.7 -77.34 79.4 -77 76 C-75.02 76 -73.04 76 -71 76 C-71 74.35 -71 72.7 -71 71 C-72.98 71 -74.96 71 -77 71 C-77 69.02 -77 67.04 -77 65 C-75.35 65 -73.7 65 -72 65 C-72 61.37 -72 57.74 -72 54 C-68.37 54 -64.74 54 -61 54 C-61.33 50.37 -61.66 46.74 -62 43 C-57.37078475 41.9838308 -53.65537393 42.16203269 -49 43 C-49 41.35 -49 39.7 -49 38 C-51.31 38 -53.62 38 -56 38 C-56 36.35 -56 34.7 -56 33 C-53.03 32.505 -53.03 32.505 -50 32 C-49.67 30.35 -49.34 28.7 -49 27 C-44.38 26.67 -39.76 26.34 -35 26 C-34.67 24.35 -34.34 22.7 -34 21 C-36.31 21 -38.62 21 -41 21 C-41 19.35 -41 17.7 -41 16 C-39.02 15.67 -37.04 15.34 -35 15 C-34.67 13.68 -34.34 12.36 -34 11 C-31.36 11 -28.72 11 -26 11 C-26 12.65 -26 14.3 -26 16 C-23.69 16 -21.38 16 -19 16 C-19 14.35 -19 12.7 -19 11 C-18.01 11 -17.02 11 -16 11 C-16.495 9.515 -16.495 9.515 -17 8 C-16.34 7.01 -15.68 6.02 -15 5 C-10.05 5.33 -5.1 5.66 0 6 C0 4.02 0 2.04 0 0 Z M-33 16 C-33 17.65 -33 19.3 -33 21 C-31.02 21 -29.04 21 -27 21 C-27 19.35 -27 17.7 -27 16 C-28.98 16 -30.96 16 -33 16 Z " fill="#EEBA41" transform="translate(100,20)"/>
<path d="M0 0 C1.03253906 0.00676758 1.03253906 0.00676758 2.0859375 0.01367188 C3.76566335 0.02533664 5.44534375 0.04326729 7.125 0.0625 C7.125 4.3525 7.125 8.6425 7.125 13.0625 C5.145 13.0625 3.165 13.0625 1.125 13.0625 C1.125 15.3725 1.125 17.6825 1.125 20.0625 C3.105 20.0625 5.085 20.0625 7.125 20.0625 C7.125 30.6225 7.125 41.1825 7.125 52.0625 C9.765 52.0625 12.405 52.0625 15.125 52.0625 C15.90342938 55.46812852 16.22478121 58.57015756 16.125 62.0625 C17.775 62.3925 19.425 62.7225 21.125 63.0625 C21.125 68.6725 21.125 74.2825 21.125 80.0625 C23.765 80.0625 26.405 80.0625 29.125 80.0625 C29.125 83.3625 29.125 86.6625 29.125 90.0625 C31.765 90.0625 34.405 90.0625 37.125 90.0625 C37.125 93.3625 37.125 96.6625 37.125 100.0625 C42.405 100.0625 47.685 100.0625 53.125 100.0625 C53.125 101.7125 53.125 103.3625 53.125 105.0625 C57.745 105.0625 62.365 105.0625 67.125 105.0625 C67.62 111.9925 67.62 111.9925 68.125 119.0625 C63.505 119.0625 58.885 119.0625 54.125 119.0625 C54.125 117.0825 54.125 115.1025 54.125 113.0625 C52.145 113.0625 50.165 113.0625 48.125 113.0625 C48.125 111.4125 48.125 109.7625 48.125 108.0625 C44.495 108.0625 40.865 108.0625 37.125 108.0625 C37.125 106.4125 37.125 104.7625 37.125 103.0625 C29.535 103.0625 21.945 103.0625 14.125 103.0625 C14.125 99.1025 14.125 95.1425 14.125 91.0625 C10.165 91.0625 6.205 91.0625 2.125 91.0625 C1.63 84.1325 1.63 84.1325 1.125 77.0625 C-0.36 76.5675 -0.36 76.5675 -1.875 76.0625 C-1.875 73.7525 -1.875 71.4425 -1.875 69.0625 C-3.855 69.0625 -5.835 69.0625 -7.875 69.0625 C-8.37 66.0925 -8.37 66.0925 -8.875 63.0625 C-10.525 62.7325 -12.175 62.4025 -13.875 62.0625 C-13.875 59.0925 -13.875 56.1225 -13.875 53.0625 C-15.855 53.0625 -17.835 53.0625 -19.875 53.0625 C-19.8996985 49.11150072 -19.91785923 45.16053126 -19.92993164 41.20947266 C-19.93744036 39.20343449 -19.9501447 37.19741798 -19.96289062 35.19140625 C-19.96611328 33.93457031 -19.96933594 32.67773438 -19.97265625 31.3828125 C-19.97789307 30.22023926 -19.98312988 29.05766602 -19.98852539 27.85986328 C-19.875 25.0625 -19.875 25.0625 -18.875 23.0625 C-17.885 23.3925 -16.895 23.7225 -15.875 24.0625 C-15.875 24.7225 -15.875 25.3825 -15.875 26.0625 C-13.235 26.0625 -10.595 26.0625 -7.875 26.0625 C-7.875 20.7825 -7.875 15.5025 -7.875 10.0625 C-9.855 10.0625 -11.835 10.0625 -13.875 10.0625 C-13.875 7.0925 -13.875 4.1225 -13.875 1.0625 C-9.21962644 0.14157719 -4.72814567 -0.05955997 0 0 Z " fill="#EEBA41" transform="translate(36.875,105.9375)"/>
<path d="M0 0 C7.59 0 15.18 0 23 0 C23 1.65 23 3.3 23 5 C26.63 5 30.26 5 34 5 C34 6.65 34 8.3 34 10 C35.98 10 37.96 10 40 10 C40 11.98 40 13.96 40 16 C44.62 16 49.24 16 54 16 C54 13.69 54 11.38 54 9 C59.61 9 65.22 9 71 9 C71 10.98 71 12.96 71 15 C72.98 15 74.96 15 77 15 C77 13.35 77 11.7 77 10 C83.27 10 89.54 10 96 10 C95.67 12.31 95.34 14.62 95 17 C97.31 17 99.62 17 102 17 C102 18.65 102 20.3 102 22 C103.65 22 105.3 22 107 22 C107 23.65 107 25.3 107 27 C104.20965739 28.3951713 101.92774028 28.11955162 98.80615234 28.11352539 C97.50495453 28.11344986 96.20375671 28.11337433 94.86312866 28.11329651 C93.43739789 28.10818947 92.0116675 28.10297347 90.5859375 28.09765625 C89.13148039 28.09579147 87.67702266 28.09436785 86.2225647 28.09336853 C82.39207224 28.08954805 78.56161763 28.07972176 74.73114014 28.06866455 C70.82336947 28.05844035 66.91559269 28.05386874 63.0078125 28.04882812 C55.3385244 28.03809908 47.6692675 28.02102828 40 28 C39.505 25.03 39.505 25.03 39 22 C36.03 21.67 33.06 21.34 30 21 C30 17.7 30 14.4 30 11 C27.69 11 25.38 11 23 11 C23 9.35 23 7.7 23 6 C20.36 6 17.72 6 15 6 C15 7.65 15 9.3 15 11 C12.69 11 10.38 11 8 11 C7.67 9.35 7.34 7.7 7 6 C4.69 5.67 2.38 5.34 0 5 C0 3.35 0 1.7 0 0 Z " fill="#EEBA41" transform="translate(51,209)"/>
<path d="M0 0 C4.29 0 8.58 0 13 0 C13 2.31 13 4.62 13 7 C15.31 7 17.62 7 20 7 C20 8.65 20 10.3 20 12 C18.68 12 17.36 12 16 12 C16 15.96 16 19.92 16 24 C14.68 24 13.36 24 12 24 C12 25.65 12 27.3 12 29 C7.71 29 3.42 29 -1 29 C-1 30.65 -1 32.3 -1 34 C-6.94 34.495 -6.94 34.495 -13 35 C-13.33 36.65 -13.66 38.3 -14 40 C-15.47831221 40.19412181 -16.95769316 40.38012131 -18.4375 40.5625 C-19.67306641 40.71912109 -19.67306641 40.71912109 -20.93359375 40.87890625 C-21.95646484 40.93884766 -21.95646484 40.93884766 -23 41 C-24 40 -24 40 -24.0625 37.4375 C-24.041875 36.633125 -24.02125 35.82875 -24 35 C-25.65 35 -27.3 35 -29 35 C-29 33.35 -29 31.7 -29 30 C-31.31 30 -33.62 30 -36 30 C-35.67 27.69 -35.34 25.38 -35 23 C-33.35 23 -31.7 23 -30 23 C-30 20.36 -30 17.72 -30 15 C-24.72 15 -19.44 15 -14 15 C-14 13.35 -14 11.7 -14 10 C-9.38 10 -4.76 10 0 10 C0 6.7 0 3.4 0 0 Z " fill="#EDB940" transform="translate(182,196)"/>
<path d="M0 0 C4.95 0 9.9 0 15 0 C15 15.51 15 31.02 15 47 C17.97 47 20.94 47 24 47 C24 45.35 24 43.7 24 42 C25.98 42 27.96 42 30 42 C30 45.3 30 48.6 30 52 C41.88 52 53.76 52 66 52 C66 52.99 66 53.98 66 55 C67.98 55 69.96 55 72 55 C72 57.31 72 59.62 72 62 C56.16 62 40.32 62 24 62 C24 58.7 24 55.4 24 52 C19.38 52 14.76 52 10 52 C9.67 46.72 9.34 41.44 9 36 C7.02 35.67 5.04 35.34 3 35 C3 31.7 3 28.4 3 25 C2.01 25 1.02 25 0 25 C0 16.75 0 8.5 0 0 Z " fill="#AB580F" transform="translate(81,127)"/>
<path d="M0 0 C2.97 0 5.94 0 9 0 C9.33 1.32 9.66 2.64 10 4 C10.67546875 3.97679688 11.3509375 3.95359375 12.046875 3.9296875 C13.38492188 3.90261719 13.38492188 3.90261719 14.75 3.875 C16.07257813 3.84019531 16.07257813 3.84019531 17.421875 3.8046875 C20 4 20 4 24 6 C24 14.58 24 23.16 24 32 C25.65 32.33 27.3 32.66 29 33 C29.33 35.97 29.66 38.94 30 42 C31.98 42.33 33.96 42.66 36 43 C36 46.3 36 49.6 36 53 C33.69 53 31.38 53 29 53 C29 58.28 29 63.56 29 69 C27.68 69 26.36 69 25 69 C25.33 71.31 25.66 73.62 26 76 C27.485 76.495 27.485 76.495 29 77 C29 79.64 29 82.28 29 85 C27.02 85 25.04 85 23 85 C23 87.97 23 90.94 23 94 C20.03 94.495 20.03 94.495 17 95 C16.67 96.65 16.34 98.3 16 100 C12.535 100.495 12.535 100.495 9 101 C8.67 102.32 8.34 103.64 8 105 C5.69 105 3.38 105 1 105 C1 101.7 1 98.4 1 95 C3.31 95 5.62 95 8 95 C8 92.69 8 90.38 8 88 C10.64 88 13.28 88 16 88 C16 84.37 16 80.74 16 77 C18.31 77 20.62 77 23 77 C23 62.48 23 47.96 23 33 C20.69 33 18.38 33 16 33 C16 27.72 16 22.44 16 17 C13.03 17 10.06 17 7 17 C7 13.7 7 10.4 7 7 C4.69 7 2.38 7 0 7 C0 4.69 0 2.38 0 0 Z " fill="#BD4C21" transform="translate(152,74)"/>
<path d="M0 0 C2.31 0 4.62 0 7 0 C7 3.63 7 7.26 7 11 C13.6 11 20.2 11 27 11 C28 20 28 20 27 23 C24.36 23 21.72 23 19 23 C19 23.66 19 24.32 19 25 C17.68 25 16.36 25 15 25 C15 26.65 15 28.3 15 30 C13.68 30 12.36 30 11 30 C11 32.97 11 35.94 11 39 C8.36 39 5.72 39 3 39 C3 40.65 3 42.3 3 44 C-1.76307437 44.95261487 -6.1666528 45.08333357 -11 45 C-11 42.69 -11 40.38 -11 38 C-13.31 38 -15.62 38 -18 38 C-18 34.7 -18 31.4 -18 28 C-14.04 28 -10.08 28 -6 28 C-6 26.02 -6 24.04 -6 22 C-4.68 22 -3.36 22 -2 22 C-2 20.02 -2 18.04 -2 16 C-2.99 16 -3.98 16 -5 16 C-5 14.35 -5 12.7 -5 11 C-3.35 11 -1.7 11 0 11 C0 7.37 0 3.74 0 0 Z " fill="#EEBA41" transform="translate(206,158)"/>
<path d="M0 0 C1.65 0 3.3 0 5 0 C5 4.29 5 8.58 5 13 C7.31 13 9.62 13 12 13 C12 16.3 12 19.6 12 23 C14.97 23 17.94 23 21 23 C21 28.28 21 33.56 21 39 C23.31 39 25.62 39 28 39 C28 43.62 28 48.24 28 53 C23.38 53 18.76 53 14 53 C14 44.75 14 36.5 14 28 C11.36 28 8.72 28 6 28 C6 24.37 6 20.74 6 17 C3.69 17 1.38 17 -1 17 C-1 15.35 -1 13.7 -1 12 C-2.98 12 -4.96 12 -7 12 C-7 13.65 -7 15.3 -7 17 C-13.27 17 -19.54 17 -26 17 C-26 15.35 -26 13.7 -26 12 C-29.3 12 -32.6 12 -36 12 C-36 13.65 -36 15.3 -36 17 C-37.98 17 -39.96 17 -42 17 C-42 13.04 -42 9.08 -42 5 C-28.14 5 -14.28 5 0 5 C0 3.35 0 1.7 0 0 Z " fill="#FEFBBC" transform="translate(147,68)"/>
<path d="M0 0 C15.18 0 30.36 0 46 0 C46 1.65 46 3.3 46 5 C32.47 5 18.94 5 5 5 C5 6.65 5 8.3 5 10 C0.38 10 -4.24 10 -9 10 C-9 12.31 -9 14.62 -9 17 C-2.4 17 4.2 17 11 17 C11 19.31 11 21.62 11 24 C9.02 24 7.04 24 5 24 C5 25.32 5 26.64 5 28 C-1.6 28 -8.2 28 -15 28 C-15 25.69 -15 23.38 -15 21 C-18.63 21 -22.26 21 -26 21 C-26 22.98 -26 24.96 -26 27 C-28.97 27 -31.94 27 -35 27 C-34.67 25.02 -34.34 23.04 -34 21 C-36.31 21 -38.62 21 -41 21 C-41 19.35 -41 17.7 -41 16 C-39.02 15.67 -37.04 15.34 -35 15 C-34.67 13.68 -34.34 12.36 -34 11 C-31.36 11 -28.72 11 -26 11 C-26 12.65 -26 14.3 -26 16 C-23.69 16 -21.38 16 -19 16 C-19 14.35 -19 12.7 -19 11 C-18.01 11 -17.02 11 -16 11 C-16.33 10.01 -16.66 9.02 -17 8 C-16.34 7.01 -15.68 6.02 -15 5 C-10.05 5.33 -5.1 5.66 0 6 C0 4.02 0 2.04 0 0 Z M-33 16 C-33 17.65 -33 19.3 -33 21 C-31.02 21 -29.04 21 -27 21 C-27 19.35 -27 17.7 -27 16 C-28.98 16 -30.96 16 -33 16 Z " fill="#EDB940" transform="translate(100,20)"/>
<path d="M0 0 C4.95 0 9.9 0 15 0 C15.91323299 3.65293196 16.13408661 6.45744689 16.125 10.1875 C16.12886719 11.78658203 16.12886719 11.78658203 16.1328125 13.41796875 C16 16 16 16 15 17 C12.67182036 17.36760731 10.3381615 17.70241581 8 18 C7.67 18.99 7.34 19.98 7 21 C-3.395 21.495 -3.395 21.495 -14 22 C-14 24.97 -14 27.94 -14 31 C-12.02 31 -10.04 31 -8 31 C-8 36.28 -8 41.56 -8 47 C-9.98 47 -11.96 47 -14 47 C-14 45.35 -14 43.7 -14 42 C-15.98 42 -17.96 42 -20 42 C-20 35.4 -20 28.8 -20 22 C-18.35 21.67 -16.7 21.34 -15 21 C-14.67 17.7 -14.34 14.4 -14 11 C-9.38 11 -4.76 11 0 11 C0 7.37 0 3.74 0 0 Z " fill="#AC5910" transform="translate(37,85)"/>
<path d="M0 0 C14.85 0 29.7 0 45 0 C45 1.65 45 3.3 45 5 C31.14 5 17.28 5 3 5 C3 7.31 3 9.62 3 12 C0.03 12 -2.94 12 -6 12 C-6 20.91 -6 29.82 -6 39 C-11.28 39 -16.56 39 -22 39 C-22 33.39 -22 27.78 -22 22 C-19.03 21.67 -16.06 21.34 -13 21 C-12.67 17.7 -12.34 14.4 -12 11 C-10.02 11 -8.04 11 -6 11 C-6 9.35 -6 7.7 -6 6 C-4.35 5.67 -2.7 5.34 -1 5 C-0.67 3.35 -0.34 1.7 0 0 Z " fill="#AB580F" transform="translate(102,68)"/>
<path d="M0 0 C2.64 0 5.28 0 8 0 C8 3.3 8 6.6 8 10 C13.28 10 18.56 10 24 10 C24 11.65 24 13.3 24 15 C28.62 15 33.24 15 38 15 C38.495 21.93 38.495 21.93 39 29 C34.38 29 29.76 29 25 29 C25 27.02 25 25.04 25 23 C23.02 23 21.04 23 19 23 C19 21.35 19 19.7 19 18 C15.37 18 11.74 18 8 18 C8 16.35 8 14.7 8 13 C5.36 13 2.72 13 0 13 C0 8.71 0 4.42 0 0 Z " fill="#FEFBBE" transform="translate(66,196)"/>
<path d="M0 0 C2.64 0 5.28 0 8 0 C8.77842938 3.40562852 9.09978121 6.50765756 9 10 C10.65 10.33 12.3 10.66 14 11 C14 16.61 14 22.22 14 28 C16.64 28 19.28 28 22 28 C22 33.61 22 39.22 22 45 C18.37 45 14.74 45 11 45 C11 38.4 11 31.8 11 25 C9.02 25 7.04 25 5 25 C5 22.36 5 19.72 5 17 C3.35 17 1.7 17 0 17 C0 11.39 0 5.78 0 0 Z " fill="#AC5910" transform="translate(44,158)"/>
<path d="M0 0 C13.53 0 27.06 0 41 0 C41 2.64 41 5.28 41 8 C27.47 8 13.94 8 0 8 C0 9.32 0 10.64 0 12 C-4.62 12 -9.24 12 -14 12 C-14 9.69 -14 7.38 -14 5 C-9.38 5 -4.76 5 0 5 C0 3.35 0 1.7 0 0 Z " fill="#FEFCBE" transform="translate(105,25)"/>
<path d="M0 0 C2.31 0 4.62 0 7 0 C7 3.63 7 7.26 7 11 C13.6 11 20.2 11 27 11 C28 20 28 20 27 23 C19.08 22.67 11.16 22.34 3 22 C3 20.68 3 19.36 3 18 C1.35 18 -0.3 18 -2 18 C-2 17.34 -2 16.68 -2 16 C-2.99 16 -3.98 16 -5 16 C-5 14.35 -5 12.7 -5 11 C-3.35 11 -1.7 11 0 11 C0 7.37 0 3.74 0 0 Z " fill="#AC5910" transform="translate(206,158)"/>
<path d="M0 0 C2.97 0 5.94 0 9 0 C9.33 1.32 9.66 2.64 10 4 C10.67546875 3.97679688 11.3509375 3.95359375 12.046875 3.9296875 C13.38492188 3.90261719 13.38492188 3.90261719 14.75 3.875 C16.07257813 3.84019531 16.07257813 3.84019531 17.421875 3.8046875 C20 4 20 4 24 6 C24 14.91 24 23.82 24 33 C21.36 33 18.72 33 16 33 C16 27.72 16 22.44 16 17 C13.03 17 10.06 17 7 17 C7 13.7 7 10.4 7 7 C4.69 7 2.38 7 0 7 C0 4.69 0 2.38 0 0 Z " fill="#5D2826" transform="translate(152,74)"/>
<path d="M0 0 C2.31 0 4.62 0 7 0 C7.33 6.93 7.66 13.86 8 21 C15.59 21 23.18 21 31 21 C31 18.03 31 15.06 31 12 C32.98 12 34.96 12 37 12 C37 15.3 37 18.6 37 22 C35.35 22 33.7 22 32 22 C32 23.32 32 24.64 32 26 C23.75 26 15.5 26 7 26 C7 24.68 7 23.36 7 22 C4.69 22 2.38 22 0 22 C0 14.74 0 7.48 0 0 Z " fill="#C44728" transform="translate(110,143)"/>
<path d="M0 0 C2.31 0 4.62 0 7 0 C7 1.65 7 3.3 7 5 C8.65 5 10.3 5 12 5 C12 6.65 12 8.3 12 10 C9.51644959 11.24177521 7.86892378 11.12036681 5.09130859 11.11352539 C4.07040131 11.11344986 3.04949402 11.11337433 1.99765015 11.11329651 C0.33978989 11.10555458 0.33978989 11.10555458 -1.3515625 11.09765625 C-2.4807309 11.0962413 -3.60989929 11.09482635 -4.77328491 11.09336853 C-8.39054988 11.08775744 -12.00775364 11.07520303 -15.625 11.0625 C-18.07291577 11.05748643 -20.52083252 11.05292328 -22.96875 11.04882812 C-28.97918766 11.0377844 -34.98958946 11.02103544 -41 11 C-41 9.35 -41 7.7 -41 6 C-27.47 6 -13.94 6 0 6 C0 4.02 0 2.04 0 0 Z " fill="#AC5910" transform="translate(146,226)"/>
<path d="M0 0 C0.99 0.33 1.98 0.66 3 1 C3 1.66 3 2.32 3 3 C3.66 3 4.32 3 5 3 C5 9.93 5 16.86 5 24 C6.98 24 8.96 24 11 24 C11 28.95 11 33.9 11 39 C12.98 39 14.96 39 17 39 C17 41.31 17 43.62 17 46 C15.02 46 13.04 46 11 46 C10.67 44.02 10.34 42.04 10 40 C8.35 39.67 6.7 39.34 5 39 C5 36.03 5 33.06 5 30 C3.02 30 1.04 30 -1 30 C-1.0246985 26.04900072 -1.04285923 22.09803126 -1.05493164 18.14697266 C-1.06244036 16.14093449 -1.0751447 14.13491798 -1.08789062 12.12890625 C-1.09111328 10.87207031 -1.09433594 9.61523438 -1.09765625 8.3203125 C-1.10289307 7.15773926 -1.10812988 5.99516602 -1.11352539 4.79736328 C-1 2 -1 2 0 0 Z " fill="#652C29" transform="translate(18,129)"/>
<path d="M0 0 C0.99 0 1.98 0 3 0 C3 3.63 3 7.26 3 11 C1.68 11 0.36 11 -1 11 C-1 12.65 -1 14.3 -1 16 C-5.29 16 -9.58 16 -14 16 C-14 17.65 -14 19.3 -14 21 C-20.435 21.495 -20.435 21.495 -27 22 C-27 20.02 -27 18.04 -27 16 C-24.69 16 -22.38 16 -20 16 C-20 12.37 -20 8.74 -20 5 C-18.02 5 -16.04 5 -14 5 C-14 6.98 -14 8.96 -14 11 C-11.69 11 -9.38 11 -7 11 C-7 9.02 -7 7.04 -7 5 C-4.69 5 -2.38 5 0 5 C0 3.35 0 1.7 0 0 Z " fill="#692E2B" transform="translate(195,209)"/>
<path d="M0 0 C4.62 0 9.24 0 14 0 C14 1.32 14 2.64 14 4 C15.32 4 16.64 4 18 4 C18 7.96 18 11.92 18 16 C15.24921116 16.91692961 13.64051087 17.10886083 10.8125 17.0625 C8.9253125 17.0315625 8.9253125 17.0315625 7 17 C7 14.69 7 12.38 7 10 C4.69 10 2.38 10 0 10 C0 6.7 0 3.4 0 0 Z " fill="#AB580F" transform="translate(188,186)"/>
<path d="M0 0 C1.98 0 3.96 0 6 0 C6 2.97 6 5.94 6 9 C7.98 9 9.96 9 12 9 C12 14.28 12 19.56 12 25 C10.02 25 8.04 25 6 25 C6 23.35 6 21.7 6 20 C4.02 20 2.04 20 0 20 C0 13.4 0 6.8 0 0 Z " fill="#AC5910" transform="translate(17,107)"/>
<path d="M0 0 C11.88 0 23.76 0 36 0 C36 1.98 36 3.96 36 6 C24.12 6 12.24 6 0 6 C0 4.02 0 2.04 0 0 Z " fill="#AC5910" transform="translate(116,38)"/>
<path d="M0 0 C1.65 0 3.3 0 5 0 C5 13.86 5 27.72 5 42 C3.35 42 1.7 42 0 42 C0 28.14 0 14.28 0 0 Z " fill="#AC5810" transform="translate(105,101)"/>
<path d="M0 0 C13.53 0 27.06 0 41 0 C41 1.65 41 3.3 41 5 C27.47 5 13.94 5 0 5 C0 3.35 0 1.7 0 0 Z " fill="#AC5910" transform="translate(105,20)"/>
<path d="M0 0 C2.78680178 5.57360356 1.06415847 14.01410863 0 20 C-6.75 21.125 -6.75 21.125 -9 20 C-9 13.4 -9 6.8 -9 0 C-5.17943822 -0.95514044 -3.64458987 -1.08352672 0 0 Z " fill="#5F2A27" transform="translate(241,126)"/>
<path d="M0 0 C5.28 0 10.56 0 16 0 C16 1.32 16 2.64 16 4 C13.36 4 10.72 4 8 4 C8 7.63 8 11.26 8 15 C5.69 15 3.38 15 1 15 C1 13.35 1 11.7 1 10 C-1.31 10 -3.62 10 -6 10 C-5.67 7.69 -5.34 5.38 -5 3 C-3.35 3 -1.7 3 0 3 C0 2.01 0 1.02 0 0 Z " fill="#FEFCBF" transform="translate(152,216)"/>
<path d="M0 0 C2.64 0 5.28 0 8 0 C8.76173392 4.3164922 9.16063604 7.74433453 8 12 C5.69 12.33 3.38 12.66 1 13 C0.67 14.32 0.34 15.64 0 17 C-2.31 17 -4.62 17 -7 17 C-7 13.7 -7 10.4 -7 7 C-4.69 7 -2.38 7 0 7 C0 4.69 0 2.38 0 0 Z " fill="#AA570F" transform="translate(160,162)"/>
<path d="M0 0 C2.97 0 5.94 0 9 0 C9.33 1.32 9.66 2.64 10 4 C12.97 4.495 12.97 4.495 16 5 C16 8.96 16 12.92 16 17 C13.03 17 10.06 17 7 17 C7 13.7 7 10.4 7 7 C4.69 7 2.38 7 0 7 C0 4.69 0 2.38 0 0 Z " fill="#AA580F" transform="translate(152,74)"/>
<path d="M0 0 C2.64 0 5.28 0 8 0 C8 5.61 8 11.22 8 17 C5.69 17 3.38 17 1 17 C1 18.32 1 19.64 1 21 C-0.98 21 -2.96 21 -5 21 C-5.33 20.34 -5.66 19.68 -6 19 C-5.67 18.34 -5.34 17.68 -5 17 C-3.35 17 -1.7 17 0 17 C0 11.39 0 5.78 0 0 Z " fill="#AB580F" transform="translate(152,126)"/>
<path d="M0 0 C6.43311296 -0.09507063 12.65758005 -0.15316726 19 1 C19 4.63 19 8.26 19 12 C16.69 12 14.38 12 12 12 C12 10.35 12 8.7 12 7 C8.04 7 4.08 7 0 7 C0 4.69 0 2.38 0 0 Z " fill="#FEFCBF" transform="translate(213,95)"/>
<path d="M0 0 C3.96 0 7.92 0 12 0 C12 4.29 12 8.58 12 13 C8.04 13 4.08 13 0 13 C0 8.71 0 4.42 0 0 Z " fill="#FEFBBF" transform="translate(209,68)"/>
<path d="M0 0 C2.64 0 5.28 0 8 0 C9.04792525 3.43486611 9.13372185 6.60718037 9.125 10.1875 C9.12757812 11.25355469 9.13015625 12.31960937 9.1328125 13.41796875 C9 16 9 16 8 17 C4.04 17.495 4.04 17.495 0 18 C0 12.06 0 6.12 0 0 Z " fill="#5F2927" transform="translate(44,85)"/>
<path d="M0 0 C4.62 0 9.24 0 14 0 C14 1.98 14 3.96 14 6 C11.69 6 9.38 6 7 6 C7 7.65 7 9.3 7 11 C6.34 11 5.68 11 5 11 C5 12.65 5 14.3 5 16 C3.35 16 1.7 16 0 16 C0 10.72 0 5.44 0 0 Z " fill="#AC5910" transform="translate(52,69)"/>
<path d="M0 0 C1.98 0 3.96 0 6 0 C6 5.28 6 10.56 6 16 C-0.435 16.495 -0.435 16.495 -7 17 C-7 15.02 -7 13.04 -7 11 C-4.69 11 -2.38 11 0 11 C0 7.37 0 3.74 0 0 Z " fill="#AC5910" transform="translate(175,214)"/>
<path d="M0 0 C1.65 0 3.3 0 5 0 C5 4.62 5 9.24 5 14 C1.37 14 -2.26 14 -6 14 C-6 10.7 -6 7.4 -6 4 C-4.02 4 -2.04 4 0 4 C0 2.68 0 1.36 0 0 Z " fill="#FEFBBB" transform="translate(142,165)"/>
<path d="M0 0 C2.64 0 5.28 0 8 0 C8 1.32 8 2.64 8 4 C10.64 4 13.28 4 16 4 C16 5.98 16 7.96 16 10 C10.72 10 5.44 10 0 10 C0 6.7 0 3.4 0 0 Z " fill="#DEA139" transform="translate(152,38)"/>
<path d="M0 0 C2.64 0 5.28 0 8 0 C8 3.63 8 7.26 8 11 C3.38 11 -1.24 11 -6 11 C-6 9.02 -6 7.04 -6 5 C-4.02 5 -2.04 5 0 5 C0 3.35 0 1.7 0 0 Z " fill="#AC5910" transform="translate(153,96)"/>
<path d="M0 0 C2.31 0 4.62 0 7 0 C7 5.61 7 11.22 7 17 C5.02 17.33 3.04 17.66 1 18 C0 17 0 17 -0.09765625 13.18359375 C-0.09098089 11.60153318 -0.07901875 10.01948841 -0.0625 8.4375 C-0.05798828 7.63119141 -0.05347656 6.82488281 -0.04882812 5.99414062 C-0.03700518 3.99606244 -0.01906914 1.99802217 0 0 Z " fill="#682D2A" transform="translate(206,85)"/>
<path d="M0 0 C2.31 0 4.62 0 7 0 C7 5.61 7 11.22 7 17 C4.69 17 2.38 17 0 17 C0 11.39 0 5.78 0 0 Z " fill="#692E2B" transform="translate(37,126)"/>
<path d="M0 0 C4.95 0 9.9 0 15 0 C15 3.63 15 7.26 15 11 C12.69 11 10.38 11 8 11 C7.67 9.35 7.34 7.7 7 6 C4.69 5.67 2.38 5.34 0 5 C0 3.35 0 1.7 0 0 Z " fill="#AA580F" transform="translate(51,209)"/>
<path d="M0 0 C2.31 0 4.62 0 7 0 C7 3.63 7 7.26 7 11 C5.02 11 3.04 11 1 11 C1 12.98 1 14.96 1 17 C-0.98 17 -2.96 17 -5 17 C-5 15.02 -5 13.04 -5 11 C-3.35 11 -1.7 11 0 11 C0 7.37 0 3.74 0 0 Z " fill="#682E2A" transform="translate(28,74)"/>
<path d="M0 0 C2.64 0 5.28 0 8 0 C8 0.99 8 1.98 8 3 C10.31 3 12.62 3 15 3 C15 4.65 15 6.3 15 8 C11.68929162 9.00109515 8.69915231 9.10356134 5.25 9.0625 C4.26515625 9.05347656 3.2803125 9.04445312 2.265625 9.03515625 C1.51796875 9.02355469 0.7703125 9.01195312 0 9 C0 6.03 0 3.06 0 0 Z " fill="#FEFCBF" transform="translate(187,200)"/>
<path d="M0 0 C2.97 0 5.94 0 9 0 C9 3.96 9 7.92 9 12 C6.03 12 3.06 12 0 12 C0 8.04 0 4.08 0 0 Z " fill="#AC5910" transform="translate(232,107)"/>
<path d="M0 0 C2.31 0 4.62 0 7 0 C7 1.65 7 3.3 7 5 C8.65 5 10.3 5 12 5 C12 6.65 12 8.3 12 10 C9.01002175 11.49498913 6.29957225 11.11577446 3 11 C2.01 10.67 1.02 10.34 0 10 C0 6.7 0 3.4 0 0 Z " fill="#5E2926" transform="translate(146,226)"/>
<path d="M0 0 C1.98 0 3.96 0 6 0 C6 5.61 6 11.22 6 17 C4.02 17 2.04 17 0 17 C0 11.39 0 5.78 0 0 Z " fill="#AC5910" transform="translate(217,126)"/>
<path d="M0 0 C2.64 0 5.28 0 8 0 C8.19573608 1.43640171 8.38127816 2.87419504 8.5625 4.3125 C8.66691406 5.11300781 8.77132812 5.91351563 8.87890625 6.73828125 C9 9 9 9 8 12 C5.36 12 2.72 12 0 12 C0 8.04 0 4.08 0 0 Z " fill="#642C29" transform="translate(225,169)"/>
<path d="M0 0 C6.27 0 12.54 0 19 0 C19 1.65 19 3.3 19 5 C12.73 5 6.46 5 0 5 C0 3.35 0 1.7 0 0 Z " fill="#AC5910" transform="translate(128,219)"/>
<path d="M0 0 C2.64 0 5.28 0 8 0 C8.87867729 3.73437848 9.08912219 7.16774573 9 11 C6.03 11 3.06 11 0 11 C0 7.37 0 3.74 0 0 Z " fill="#632B28" transform="translate(44,158)"/>
<path d="M0 0 C2.31 0 4.62 0 7 0 C7 4.95 7 9.9 7 15 C5.02 15 3.04 15 1 15 C0.67 10.05 0.34 5.1 0 0 Z " fill="#AA580F" transform="translate(38,182)"/>
<path d="M0 0 C4.95 0 9.9 0 15 0 C15 1.98 15 3.96 15 6 C10.05 6 5.1 6 0 6 C0 4.02 0 2.04 0 0 Z " fill="#AC5910" transform="translate(85,42)"/>
<path d="M0 0 C4.95 0 9.9 0 15 0 C15 1.98 15 3.96 15 6 C10.05 6 5.1 6 0 6 C0 4.02 0 2.04 0 0 Z " fill="#DEA139" transform="translate(153,26)"/>
<path d="M0 0 C1.65 0 3.3 0 5 0 C5 3.3 5 6.6 5 10 C0.38 10 -4.24 10 -9 10 C-9 8.68 -9 7.36 -9 6 C-6.03 6 -3.06 6 0 6 C0 4.02 0 2.04 0 0 Z " fill="#EEBA41" transform="translate(100,20)"/>
<path d="M0 0 C5.61 0 11.22 0 17 0 C17 1.65 17 3.3 17 5 C11.39 5 5.78 5 0 5 C0 3.35 0 1.7 0 0 Z " fill="#AC5910" transform="translate(105,218)"/>
<path d="M0 0 C0 4.62 0 9.24 0 14 C-1.98 14 -3.96 14 -6 14 C-6 9.38 -6 4.76 -6 0 C-4 -1 -4 -1 0 0 Z " fill="#C34728" transform="translate(181,107)"/>
<path d="M0 0 C5.28 0 10.56 0 16 0 C16 1.65 16 3.3 16 5 C10.72 5 5.44 5 0 5 C0 3.35 0 1.7 0 0 Z " fill="#AC5910" transform="translate(152,211)"/>
<path d="M0 0 C2.64 0 5.28 0 8 0 C8 3.3 8 6.6 8 10 C5.36 10 2.72 10 0 10 C0 6.7 0 3.4 0 0 Z " fill="#AC5910" transform="translate(66,53)"/>
<path d="M0 0 C2.31 0 4.62 0 7 0 C7 3.63 7 7.26 7 11 C4.69 11 2.38 11 0 11 C0 7.37 0 3.74 0 0 Z " fill="#692E2B" transform="translate(206,158)"/>
<path d="M0 0 C2.31 0 4.62 0 7 0 C7 3.63 7 7.26 7 11 C4.69 11 2.38 11 0 11 C0 7.37 0 3.74 0 0 Z " fill="#DEA139" transform="translate(195,41)"/>
<path d="M0 0 C3.63 0 7.26 0 11 0 C11 2.31 11 4.62 11 7 C7.37 7 3.74 7 0 7 C0 4.69 0 2.38 0 0 Z " fill="#FEFBBF" transform="translate(74,41)"/>
<path d="M0 0 C1.32 0 2.64 0 4 0 C4.82638376 2.89234315 5 4.88742431 5 8 C7.31 8.33 9.62 8.66 12 9 C11.67 10.65 11.34 12.3 11 14 C8.69 14 6.38 14 4 14 C4 12.35 4 10.7 4 9 C2.68 9 1.36 9 0 9 C0 6.03 0 3.06 0 0 Z " fill="#622A28" transform="translate(221,71)"/>
<path d="M0 0 C2.64 0 5.28 0 8 0 C8 2.97 8 5.94 8 9 C5.36 9 2.72 9 0 9 C0 6.03 0 3.06 0 0 Z " fill="#AC5910" transform="translate(209,188)"/>
<path d="M0 0 C3.96 0 7.92 0 12 0 C12 1.98 12 3.96 12 6 C8.04 6 4.08 6 0 6 C0 4.02 0 2.04 0 0 Z " fill="#DEA139" transform="translate(188,69)"/>
<path d="M0 0 C4.62 0 9.24 0 14 0 C14 1.65 14 3.3 14 5 C9.38 5 4.76 5 0 5 C0 3.35 0 1.7 0 0 Z " fill="#EEBA41" transform="translate(90,211)"/>
<path d="M0 0 C2.31 0 4.62 0 7 0 C7 3.3 7 6.6 7 10 C4.69 10 2.38 10 0 10 C0 6.7 0 3.4 0 0 Z " fill="#692E2B" transform="translate(175,53)"/>
<path d="M0 0 C1.98 0 3.96 0 6 0 C6 3.63 6 7.26 6 11 C3.69 11 1.38 11 -1 11 C-0.67 7.37 -0.34 3.74 0 0 Z " fill="#642C29" transform="translate(23,96)"/>
<path d="M0 0 C1.98 0 3.96 0 6 0 C6 3.63 6 7.26 6 11 C4.02 11 2.04 11 0 11 C0 7.37 0 3.74 0 0 Z " fill="#AC5910" transform="translate(111,90)"/>
<path d="M0 0 C2.64 0 5.28 0 8 0 C8 2.31 8 4.62 8 7 C5.36 7 2.72 7 0 7 C0 4.69 0 2.38 0 0 Z " fill="#AC5910" transform="translate(59,152)"/>
<path d="M0 0 C3.3 0 6.6 0 10 0 C10 1.98 10 3.96 10 6 C7.03 6 4.06 6 1 6 C0.67 4.02 0.34 2.04 0 0 Z " fill="#A6560F" transform="translate(90,231)"/>
<path d="M0 0 C1.98 0 3.96 0 6 0 C6 3.3 6 6.6 6 10 C4.35 10 2.7 10 1 10 C0.67 6.7 0.34 3.4 0 0 Z " fill="#DEA139" transform="translate(200,75)"/>
<path d="M0 0 C1.98 0 3.96 0 6 0 C6 3.3 6 6.6 6 10 C4.02 10 2.04 10 0 10 C0 6.7 0 3.4 0 0 Z " fill="#B64225" transform="translate(141,155)"/>
<path d="M0 0 C3.3 0 6.6 0 10 0 C10 1.65 10 3.3 10 5 C6.7 5 3.4 5 0 5 C0 3.35 0 1.7 0 0 Z " fill="#692E2B" transform="translate(81,225)"/>
<path d="M0 0 C2.64 0 5.28 0 8 0 C8 1.98 8 3.96 8 6 C5.03 6 2.06 6 -1 6 C-0.67 4.02 -0.34 2.04 0 0 Z " fill="#662D2A" transform="translate(51,47)"/>
<path d="M0 0 C2.64 0 5.28 0 8 0 C8 1.98 8 3.96 8 6 C5.03 6 2.06 6 -1 6 C-0.67 4.02 -0.34 2.04 0 0 Z " fill="#A8570F" transform="translate(66,41)"/>
<path d="M0 0 C2.64 0 5.28 0 8 0 C8 1.98 8 3.96 8 6 C5.36 6 2.72 6 0 6 C0 4.02 0 2.04 0 0 Z " fill="#EEBA41" transform="translate(66,220)"/>
<path d="M0 0 C2.64 0 5.28 0 8 0 C8 1.98 8 3.96 8 6 C5.36 6 2.72 6 0 6 C0 4.02 0 2.04 0 0 Z " fill="#AC5910" transform="translate(59,107)"/>
<path d="M0 0 C2.64 0 5.28 0 8 0 C8 1.98 8 3.96 8 6 C5.36 6 2.72 6 0 6 C0 4.02 0 2.04 0 0 Z " fill="#C54829" transform="translate(160,42)"/>
<path d="M0 0 C2.97 0 5.94 0 9 0 C9 1.65 9 3.3 9 5 C6.03 5 3.06 5 0 5 C0 3.35 0 1.7 0 0 Z " fill="#C54829" transform="translate(96,174)"/>
<path d="M0 0 C0 1.98 0 3.96 0 6 C-2.31 6 -4.62 6 -7 6 C-7 4.02 -7 2.04 -7 0 C-2.25 -1.125 -2.25 -1.125 0 0 Z " fill="#662C2A" transform="translate(45,63)"/>
<path d="M0 0 C2.64 0 5.28 0 8 0 C8 1.65 8 3.3 8 5 C5.36 5.33 2.72 5.66 0 6 C0 4.02 0 2.04 0 0 Z " fill="#642B28" transform="translate(168,225)"/>
<path d="M0 0 C1.98 0 3.96 0 6 0 C6 2.31 6 4.62 6 7 C4.02 7 2.04 7 0 7 C0 4.69 0 2.38 0 0 Z " fill="#AC5910" transform="translate(147,112)"/>
<path d="M0 0 C1.98 0 3.96 0 6 0 C6 2.31 6 4.62 6 7 C4.02 7 2.04 7 0 7 C0 4.69 0 2.38 0 0 Z " fill="#692E2B" transform="translate(105,37)"/>
<path d="M0 0 C1.65 0 3.3 0 5 0 C5 2.64 5 5.28 5 8 C3.35 8 1.7 8 0 8 C0 5.36 0 2.72 0 0 Z " fill="#EEBA41" transform="translate(147,68)"/>
<path d="M0 0 C2.31 0 4.62 0 7 0 C7 1.65 7 3.3 7 5 C4.69 5.33 2.38 5.66 0 6 C0 4.02 0 2.04 0 0 Z " fill="#EEBA41" transform="translate(195,203)"/>
<path d="M0 0 C2.31 0.33 4.62 0.66 7 1 C7 2.65 7 4.3 7 6 C4.69 6 2.38 6 0 6 C-1 3 -1 3 0 0 Z " fill="#632B28" transform="translate(84,25)"/>
<path d="M0 0 C1.98 0 3.96 0 6 0 C6 1.98 6 3.96 6 6 C4.02 6 2.04 6 0 6 C0 4.02 0 2.04 0 0 Z " fill="#692E2B" transform="translate(75,121)"/>
<path d="M0 0 C1.98 0 3.96 0 6 0 C6 1.98 6 3.96 6 6 C4.02 6 2.04 6 0 6 C0 4.02 0 2.04 0 0 Z " fill="#AC5910" transform="translate(38,113)"/>
<path d="M0 0 C1.98 0 3.96 0 6 0 C6 1.98 6 3.96 6 6 C4.02 6 2.04 6 0 6 C0 4.02 0 2.04 0 0 Z " fill="#AC5910" transform="translate(23,85)"/>
<path d="M0 0 C2.31 0 4.62 0 7 0 C7 1.65 7 3.3 7 5 C4.69 5 2.38 5 0 5 C0 3.35 0 1.7 0 0 Z " fill="#AC5910" transform="translate(146,226)"/>
<path d="M0 0 C2.64 0 5.28 0 8 0 C8 1.32 8 2.64 8 4 C5.36 4 2.72 4 0 4 C0 2.68 0 1.36 0 0 Z " fill="#EEBA41" transform="translate(66,196)"/>
<path d="M0 0 C1.65 0 3.3 0 5 0 C5 1.98 5 3.96 5 6 C3.35 6 1.7 6 0 6 C0 4.02 0 2.04 0 0 Z " fill="#AC5910" transform="translate(111,208)"/>
<path d="M0 0 C1.65 0 3.3 0 5 0 C5 1.65 5 3.3 5 5 C3.35 5 1.7 5 0 5 C0 3.35 0 1.7 0 0 Z " fill="#EEBA41" transform="translate(85,206)"/>
<path d="M0 0 C1.65 0 3.3 0 5 0 C5 1.65 5 3.3 5 5 C3.35 5 1.7 5 0 5 C0 3.35 0 1.7 0 0 Z " fill="#EEBA41" transform="translate(80,196)"/>
<path d="M0 0 C1.65 0 3.3 0 5 0 C5 1.65 5 3.3 5 5 C3.35 5 1.7 5 0 5 C0 3.35 0 1.7 0 0 Z " fill="#AC5910" transform="translate(142,96)"/>
<path d="M0 0 C1.65 0 3.3 0 5 0 C5 1.65 5 3.3 5 5 C3.35 5 1.7 5 0 5 C0 3.35 0 1.7 0 0 Z " fill="#692E2B" transform="translate(201,80)"/>
<path d="M0 0 C1.32 0 2.64 0 4 0 C4 1.98 4 3.96 4 6 C2.68 6 1.36 6 0 6 C0 4.02 0 2.04 0 0 Z " fill="#692E2B" transform="translate(96,231)"/>
<path d="M0 0 C1.98 0 3.96 0 6 0 C6 1.32 6 2.64 6 4 C4.02 4 2.04 4 0 4 C0 2.68 0 1.36 0 0 Z " fill="#EEBA41" transform="translate(188,32)"/>
<path d="M0 0 C1.32 0 2.64 0 4 0 C4 1.65 4 3.3 4 5 C2.68 5 1.36 5 0 5 C0 3.35 0 1.7 0 0 Z " fill="#AC5910" transform="translate(81,225)"/>
<path d="M0 0 C1.65 0 3.3 0 5 0 C5 1.32 5 2.64 5 4 C3.35 4 1.7 4 0 4 C0 2.68 0 1.36 0 0 Z " fill="#AC5910" transform="translate(182,196)"/>
<path d="M0 0 C2 1 2 1 2 1 Z " fill="#000000" transform="translate(25,92)"/>
<path d="" fill="#000000" transform="translate(0,0)"/>
<path d="" fill="#000000" transform="translate(0,0)"/>
<path d="" fill="#000000" transform="translate(0,0)"/>
</svg>
